<?xml version="1.0" encoding="UTF-8"?>
<svg version="1.1" xmlns="http://www.w3.org/2000/svg" width="500" height="500">
<path d="M0 0 C2.56689453 1.20825195 2.56689453 1.20825195 5.1328125 2.73828125 C6.09509766 3.30595215 7.05738281 3.87362305 8.04882812 4.45849609 C9.06396484 5.07031738 10.07910156 5.68213867 11.125 6.3125 C12.17365234 6.93463379 13.22230469 7.55676758 14.30273438 8.19775391 C17.54099473 10.12224207 20.77103458 12.05996519 24 14 C26.00756768 15.19962854 28.01537 16.39886455 30.0234375 17.59765625 C34.68916184 20.3870981 39.34765832 23.18829954 44 26 C42.71034824 27.37562854 41.37310707 28.70766393 40 30 C39.34 30 38.68 30 38 30 C38.433125 30.433125 38.86625 30.86625 39.3125 31.3125 C40.875 32.875 42.4375 34.4375 44 36 C40.25 39 40.25 39 38 39 C38 39.66 38 40.32 38 41 C39.65 41.66 41.3 42.32 43 43 C43 43.99 43 44.98 43 46 C42.31188232 46.39678955 41.62376465 46.7935791 40.91479492 47.20239258 C38.84893165 48.39371451 36.78327687 49.58539804 34.71777344 50.77734375 C32.35414332 52.14083035 29.98873985 53.50117154 27.62207031 54.859375 C22.1328915 58.01312618 16.65987914 61.18498767 11.25390625 64.48046875 C10.40094971 64.99440186 9.54799316 65.50833496 8.66918945 66.0378418 C7.09298633 66.99049903 5.52459314 67.95623804 3.96557617 68.93676758 C3.26021729 69.35982178 2.5548584 69.78287598 1.828125 70.21875 C0.9294873 70.7746582 0.9294873 70.7746582 0.01269531 71.34179688 C-3.80256831 72.58948619 -7.06175596 71.44468812 -10.58276367 69.77587891 C-11.43588135 69.26460449 -12.28899902 68.75333008 -13.16796875 68.2265625 C-14.13541016 67.65397705 -15.10285156 67.0813916 -16.09960938 66.49145508 C-17.11861328 65.8755249 -18.13761719 65.25959473 -19.1875 64.625 C-21.32637568 63.34951014 -23.46570516 62.07478098 -25.60546875 60.80078125 C-26.6732959 60.16221191 -27.74112305 59.52364258 -28.84130859 58.86572266 C-31.80717134 57.11389679 -34.79418026 55.41119351 -37.80078125 53.73046875 C-38.68161377 53.23530762 -39.56244629 52.74014648 -40.4699707 52.22998047 C-42.12934001 51.30029812 -43.7931301 50.3784534 -45.46166992 49.46533203 C-47.3574184 48.39363217 -49.18771046 47.20748065 -51 46 C-51 45.01 -51 44.02 -51 43 C-49 41.3125 -49 41.3125 -47 40 C-48.65 38.35 -50.3 36.7 -52 35 C-51.195625 34.54625 -50.39125 34.0925 -49.5625 33.625 C-46.91143428 32.25274335 -46.91143428 32.25274335 -46 30 C-48.475 29.01 -48.475 29.01 -51 28 C-51 27.01 -51 26.02 -51 25 C-50.24082275 24.56768066 -49.48164551 24.13536133 -48.69946289 23.68994141 C-45.79977897 22.03793112 -42.90091217 20.38449873 -40.0022583 18.73068237 C-38.06802256 17.62814792 -36.13246054 16.5279693 -34.19677734 15.42797852 C-28.60861941 12.24683354 -23.03539415 9.0595398 -17.56640625 5.67578125 C-16.79997803 5.2051123 -16.0335498 4.73444336 -15.24389648 4.24951172 C-13.87118211 3.3995328 -12.50671629 2.53602502 -11.15258789 1.65673828 C-6.91669694 -0.95421862 -4.76807917 -1.17407219 0 0 Z " fill="#505EF5" transform="translate(119,175)"/>
<path d="M0 0 C2.55200195 1.11401367 2.55200195 1.11401367 5.23828125 2.66796875 C6.22376953 3.23193359 7.20925781 3.79589844 8.22460938 4.37695312 C9.24361328 4.97443359 10.26261719 5.57191406 11.3125 6.1875 C12.31990234 6.76564453 13.32730469 7.34378906 14.36523438 7.93945312 C19.43011784 10.85959766 24.44168481 13.84800004 29.37402344 16.98706055 C32.03993312 18.64785022 33.84352897 19.61349334 37 20 C40.26950675 18.78778881 43.07553519 16.87763934 46 15 C48.4696987 13.46348654 50.9514381 11.94737095 53.4375 10.4375 C54.08146729 10.04457764 54.72543457 9.65165527 55.38891602 9.24682617 C59.85493716 6.56608213 64.32398436 4.4092729 69.2421875 2.65625 C70.99968948 2.13868834 70.99968948 2.13868834 72 1 C73.66617115 0.95936168 75.33388095 0.957279 77 1 C77.495 2.485 77.495 2.485 78 4 C75.66722919 7.79075257 73.05973293 9.63215438 69.22949219 11.75756836 C66.54622634 13.25287496 63.8949682 14.79891433 61.2421875 16.34765625 C60.20449219 16.95287109 59.16679687 17.55808594 58.09765625 18.18164062 C57.03417969 18.80232422 55.97070312 19.42300781 54.875 20.0625 C53.80378906 20.68705078 52.73257813 21.31160156 51.62890625 21.95507812 C50.59378906 22.55900391 49.55867188 23.16292969 48.4921875 23.78515625 C47.55745605 24.33051025 46.62272461 24.87586426 45.65966797 25.43774414 C43.85949394 26.49514396 42.07986527 27.58818527 40.32080078 28.71264648 C38 30 38 30 35.375 29.8125 C33 29 33 29 30 27 C27.72461677 26.33386665 27.72461677 26.33386665 25.3125 25.875 C24.50425781 25.70742187 23.69601563 25.53984375 22.86328125 25.3671875 C22.24839844 25.24601562 21.63351563 25.12484375 21 25 C21 24.34 21 23.68 21 23 C18.69 23.33 16.38 23.66 14 24 C15.32 24.66 16.64 25.32 18 26 C17.67 26.66 17.34 27.32 17 28 C11.62923771 26.48734859 7.23754384 23.98084805 2.5 21.125 C1.76652344 20.69058594 1.03304687 20.25617188 0.27734375 19.80859375 C-3.89920234 17.3205976 -7.98076654 14.73460504 -12 12 C-11.154375 11.278125 -10.30875 10.55625 -9.4375 9.8125 C-6.65105845 7.26390537 -6.65105845 7.26390537 -7.1875 4.1875 C-7.455625 3.465625 -7.72375 2.74375 -8 2 C-4.70740208 -0.19506528 -3.81325803 -0.42142267 0 0 Z " fill="#3898F3" transform="translate(79,208)"/>
<path d="M0 0 C86.46 0 172.92 0 262 0 C262 0.99 262 1.98 262 3 C175.54 3 89.08 3 0 3 C0 2.01 0 1.02 0 0 Z " fill="#1213C5" transform="translate(172,233)"/>
<path d="M0 0 C2.19140625 2.01953125 2.19140625 2.01953125 4 4 C-7.84595263 11.50563395 -20.02669256 18.46252614 -32.21777344 25.38867188 C-33.87722698 26.34974535 -35.52248795 27.33716613 -37.13378906 28.37695312 C-39.87397386 30.12958915 -41.65875766 30.99728454 -44.9453125 31.0234375 C-48.92498125 29.69009579 -52.30593032 27.81070934 -55.875 25.625 C-56.56335938 25.22539062 -57.25171875 24.82578125 -57.9609375 24.4140625 C-59.69826827 23.3661487 -61.35752908 22.19110486 -63 21 C-63 20.01 -63 19.02 -63 18 C-64.32 17.34 -65.64 16.68 -67 16 C-66 15 -66 15 -62.4375 14.9375 C-61.303125 14.958125 -60.16875 14.97875 -59 15 C-59 15.66 -59 16.32 -59 17 C-58.40832031 17.03738281 -57.81664063 17.07476562 -57.20703125 17.11328125 C-52.24756553 17.52589585 -49.26026298 18.32212041 -45 21 C-41.56859679 20.54048234 -38.87819729 18.95861911 -35.89453125 17.26953125 C-34.91033203 16.71330078 -33.92613281 16.15707031 -32.91210938 15.58398438 C-31.88923828 14.99939453 -30.86636719 14.41480469 -29.8125 13.8125 C-28.80896484 13.24724609 -27.80542969 12.68199219 -26.77148438 12.09960938 C-21.30520365 8.99481883 -16.00430218 5.76672873 -10.84643555 2.1706543 C-7.27582247 -0.09314178 -4.13968484 -0.42241682 0 0 Z " fill="#4E67ED" transform="translate(159,216)"/>
<path d="M0 0 C1.65 0 3.3 0 5 0 C7.64 5.94 10.28 11.88 13 18 C15.64 12.06 18.28 6.12 21 0 C22.98 0 24.96 0 27 0 C27.94242818 9.03721311 28.11157151 17.92551747 28 27 C26.35 27 24.7 27 23 27 C22.93941406 25.85660156 22.87882812 24.71320313 22.81640625 23.53515625 C22.73201572 22.04425695 22.64736698 20.55337225 22.5625 19.0625 C22.52318359 18.30775391 22.48386719 17.55300781 22.44335938 16.77539062 C22.55961976 13.08055813 22.55961976 13.08055813 21 10 C18.36 15.61 15.72 21.22 13 27 C10 26 10 26 9.0168457 24.41772461 C8.73929443 23.75264893 8.46174316 23.08757324 8.17578125 22.40234375 C7.86962891 21.68369141 7.56347656 20.96503906 7.24804688 20.22460938 C6.93931641 19.46986328 6.63058594 18.71511719 6.3125 17.9375 C5.99216797 17.17888672 5.67183594 16.42027344 5.34179688 15.63867188 C4.55149298 13.76317458 3.77447803 11.8820877 3 10 C2.04012607 13.59354938 1.69756609 17.03477011 1.4375 20.75 C1.35371094 21.92046875 1.26992187 23.0909375 1.18359375 24.296875 C1.12300781 25.18890625 1.06242188 26.0809375 1 27 C0.01 27 -0.98 27 -2 27 C-1.86160047 22.87471501 -1.7130259 18.74985892 -1.5625 14.625 C-1.52318359 13.449375 -1.48386719 12.27375 -1.44335938 11.0625 C-1.38051758 9.38027344 -1.38051758 9.38027344 -1.31640625 7.6640625 C-1.27974854 6.62717285 -1.24309082 5.5902832 -1.20532227 4.52197266 C-1 2 -1 2 0 0 Z " fill="#1A18C2" transform="translate(176,197)"/>
<path d="M0 0 C1.65 0 3.3 0 5 0 C7.64 5.61 10.28 11.22 13 17 C15.62762214 14.37237786 16.6772951 11.31793921 18.0625 7.9375 C20.88006757 1.11993243 20.88006757 1.11993243 22 0 C23.66617115 -0.04063832 25.33388095 -0.042721 27 0 C27.33394752 4.31245267 27.66705557 8.62496978 28 12.9375 C28.09539062 14.16919922 28.19078125 15.40089844 28.2890625 16.66992188 C28.37929688 17.83974609 28.46953125 19.00957031 28.5625 20.21484375 C28.68818359 21.84087524 28.68818359 21.84087524 28.81640625 23.49975586 C29 26 29 26 29 27 C27.02 27 25.04 27 23 27 C22.505 17.595 22.505 17.595 22 8 C21.45730469 9.28777344 20.91460937 10.57554687 20.35546875 11.90234375 C19.63337719 13.58097219 18.91069003 15.25934451 18.1875 16.9375 C17.83107422 17.78763672 17.47464844 18.63777344 17.10742188 19.51367188 C16.58051758 20.72700195 16.58051758 20.72700195 16.04296875 21.96484375 C15.72352295 22.7137085 15.40407715 23.46257324 15.07495117 24.23413086 C14 26 14 26 11 27 C7.04 18.585 7.04 18.585 3 10 C2.34 15.61 1.68 21.22 1 27 C0.01 27 -0.98 27 -2 27 C-1.86015045 23.62472444 -1.71204731 20.24985869 -1.5625 16.875 C-1.52318359 15.92367187 -1.48386719 14.97234375 -1.44335938 13.9921875 C-1.22946977 9.25371013 -0.93438179 4.66405699 0 0 Z " fill="#2223AE" transform="translate(300,197)"/>
<path d="M0 0 C3.25599404 2.44199553 4.94471469 3.77164407 6.25 7.6875 C6.77464248 13.54937074 6.94436694 18.8386434 3.25 23.6875 C-1.47539878 27.09319282 -5.90119834 28.44567799 -11.75 27.6875 C-16.54106724 25.93691774 -18.51849519 24.22767982 -20.75 19.6875 C-21.57196281 14.18553273 -21.42858549 9.23467493 -19.1875 4.125 C-13.91667031 -1.14582969 -6.93220308 -3.30855147 0 0 Z M-14.75 6.6875 C-16.45232344 11.79447031 -16.34120138 16.09125628 -14.5 21.0625 C-12.68158599 23.79012102 -11.89365493 24.85535605 -8.75 25.6875 C-6.19539786 25.76022562 -6.19539786 25.76022562 -3.75 24.6875 C0.54550813 20.03403286 1.54203086 17.10974195 1.47265625 10.9453125 C1.17084306 7.88482089 0.18538287 6.05296795 -1.75 3.6875 C-7.61041607 -0.21944404 -10.43619924 1.53490465 -14.75 6.6875 Z " fill="#1B19B0" transform="translate(353.75,197.3125)"/>
<path d="M0 0 C3.58875 -0.0928125 3.58875 -0.0928125 7.25 -0.1875 C8.37003418 -0.22846802 8.37003418 -0.22846802 9.51269531 -0.27026367 C12.58234436 -0.30865493 14.72295876 -0.14646129 17.453125 1.296875 C19 3 19 3 19.5 6.4375 C19 10 19 10 17.125 12.4375 C15 14 15 14 13 14 C13.84884766 15.01320312 13.84884766 15.01320312 14.71484375 16.046875 C15.44832031 16.93890625 16.18179687 17.8309375 16.9375 18.75 C17.66839844 19.63171875 18.39929688 20.5134375 19.15234375 21.421875 C20.83037185 23.76330955 21.58735166 25.19661127 22 28 C19.7890625 28.37109375 19.7890625 28.37109375 17 28 C15.21002262 26.02864618 13.82150823 24.25969613 12.375 22.0625 C9.53881192 17.54686128 9.53881192 17.54686128 5 15 C5 18.96 5 22.92 5 27 C3.35 27 1.7 27 0 27 C0 18.09 0 9.18 0 0 Z M5 3 C5 5.97 5 8.94 5 12 C8.41656024 12.16677282 8.41656024 12.16677282 12 12 C12.66 11.34 13.32 10.68 14 10 C13.67673447 6.40320934 13.67673447 6.40320934 13 3 C8.89776415 1.98459888 8.89776415 1.98459888 5 3 Z " fill="#1919A8" transform="translate(411,197)"/>
<path d="M0 0 C14.33035714 -0.66964286 14.33035714 -0.66964286 17.4375 2.125 C19 5 19 5 19.125 8.0625 C18 11 18 11 13 15 C15.97 18.63 18.94 22.26 22 26 C21.67 26.66 21.34 27.32 21 28 C18.76953125 28.3359375 18.76953125 28.3359375 16 28 C13.76171875 25.6640625 13.76171875 25.6640625 11.6875 22.625 C10.99011719 21.62726563 10.29273438 20.62953125 9.57421875 19.6015625 C8 17 8 17 8 15 C7.01 15 6.02 15 5 15 C5 18.96 5 22.92 5 27 C3.35 27 1.7 27 0 27 C0 18.09 0 9.18 0 0 Z M6 2 C4.76732652 3.00836062 4.76732652 3.00836062 4.90234375 5.06640625 C4.91394531 5.89011719 4.92554688 6.71382812 4.9375 7.5625 C4.94652344 8.38878906 4.95554688 9.21507812 4.96484375 10.06640625 C4.97644531 10.70449219 4.98804688 11.34257812 5 12 C7.87364791 12.41746608 7.87364791 12.41746608 11 12 C13.15254366 9.85701707 13.15254366 9.85701707 14 7 C13.74230225 4.65114735 13.74230225 4.65114735 12 3 C8.99032674 2.09533679 8.99032674 2.09533679 6 2 Z " fill="#191BB7" transform="translate(211,197)"/>
<path d="M0 0 C13.1906585 -0.49310873 13.1906585 -0.49310873 16.94921875 1.796875 C19 4 19 4 19.125 7.5 C18 11 18 11 13 15 C15.97 18.63 18.94 22.26 22 26 C21.67 26.66 21.34 27.32 21 28 C18.76953125 28.3359375 18.76953125 28.3359375 16 28 C13.76171875 25.6640625 13.76171875 25.6640625 11.6875 22.625 C10.99011719 21.62726563 10.29273438 20.62953125 9.57421875 19.6015625 C8 17 8 17 8 15 C7.01 15 6.02 15 5 15 C5 18.96 5 22.92 5 27 C3.35 27 1.7 27 0 27 C0 18.09 0 9.18 0 0 Z M5 3 C4.92820036 4.51928038 4.91607993 6.04167482 4.9375 7.5625 C4.94652344 8.38878906 4.95554688 9.21507812 4.96484375 10.06640625 C4.97644531 10.70449219 4.98804688 11.34257812 5 12 C9.16938808 12.33467338 9.16938808 12.33467338 12.9375 10.8125 C14.24211502 8.97979862 14.24211502 8.97979862 13.8125 6.4375 C13.15372967 3.85558728 13.15372967 3.85558728 11 2 C7.70990207 1.55239094 7.70990207 1.55239094 5 3 Z " fill="#1A1CAD" transform="translate(250,197)"/>
<path d="M0 0 C2.58374023 1.12988281 2.58374023 1.12988281 5.30859375 2.703125 C6.30310547 3.27160156 7.29761719 3.84007812 8.32226562 4.42578125 C9.86430664 5.32876953 9.86430664 5.32876953 11.4375 6.25 C12.46166016 6.83652344 13.48582031 7.42304688 14.54101562 8.02734375 C17.37601617 9.66045086 20.19191453 11.32112564 23 13 C24.01271973 13.59409668 24.01271973 13.59409668 25.04589844 14.20019531 C26.69921875 15.21875 26.69921875 15.21875 29 17 C29.375 20.25 29.375 20.25 29 23 C24.6822542 22.49202991 20.96697886 21.80317221 17 20 C17 19.34 17 18.68 17 18 C16.278125 17.89429688 15.55625 17.78859375 14.8125 17.6796875 C11.74184771 16.9376132 9.66780771 15.80071672 7 14.125 C6.175 13.61195313 5.35 13.09890625 4.5 12.5703125 C3.675 12.05210937 2.85 11.53390625 2 11 C-1.27527197 8.98631427 -4.39073328 7.34058478 -8 6 C-7.625 3.5625 -7.625 3.5625 -7 1 C-4.4240343 -0.28798285 -2.86986134 -0.24538906 0 0 Z " fill="#1FD3EE" transform="translate(79,208)"/>
<path d="M0 0 C0.66 0.33 1.32 0.66 2 1 C0.75 3.4375 0.75 3.4375 -1 6 C-3 6.625 -3 6.625 -5 7 C-5.495 7.495 -5.99 7.99 -6.5 8.5 C-8 10 -8 10 -10.0625 10.4375 C-10.701875 10.623125 -11.34125 10.80875 -12 11 C-12.309375 11.66 -12.61875 12.32 -12.9375 13 C-13.4634375 13.99 -13.4634375 13.99 -14 15 C-15.66666667 15.33333333 -17.33333333 15.66666667 -19 16 C-20.9100765 18.3441848 -20.99869584 19.98435012 -21.25 23 C-20.31428115 26.13273445 -20.31428115 26.13273445 -17.76953125 27.203125 C-15.97950397 27.8953722 -14.17125351 28.54238014 -12.34765625 29.140625 C-10 30 -10 30 -8 32 C-4.89056437 34.55417927 -1.60614952 36.23528853 2 38 C2.99 38.66 3.98 39.32 5 40 C5 40.99 5 41.98 5 43 C1.83120132 41.47305157 -1.16270801 39.7392475 -4.17578125 37.92578125 C-5.16900391 37.34119141 -6.16222656 36.75660156 -7.18554688 36.15429688 C-9.26665243 34.9285114 -11.3396885 33.68891936 -13.40429688 32.43554688 C-19.41237759 28.68016956 -19.41237759 28.68016956 -26.23046875 28.10546875 C-27.14441406 28.40066406 -28.05835937 28.69585937 -29 29 C-29.33 29.99 -29.66 30.98 -30 32 C-31.32 31.34 -32.64 30.68 -34 30 C-32 28 -30 26 -28 24 C-30.475 23.01 -30.475 23.01 -33 22 C-33 21.01 -33 20.02 -33 19 C-32.17798096 18.53102295 -31.35596191 18.0620459 -30.5090332 17.57885742 C-27.44302692 15.82929662 -24.37730368 14.07924185 -21.31176758 12.32885742 C-19.98798654 11.57312701 -18.66409483 10.81759043 -17.34008789 10.06225586 C-15.43085675 8.97301041 -13.5220321 7.88305557 -11.61328125 6.79296875 C-10.73329216 6.29122383 -10.73329216 6.29122383 -9.83552551 5.77934265 C-7.25395093 4.3042069 -4.71059523 2.81322103 -2.21166992 1.20043945 C-1.11689331 0.60622192 -1.11689331 0.60622192 0 0 Z " fill="#3A89ED" transform="translate(101,181)"/>
<path d="M0 0 C12.67500811 5.82732931 24.46267658 13.14165401 36.35961914 20.39355469 C38.90032861 21.93935851 41.44821411 23.47256522 44 25 C42.71034824 26.37562854 41.37310707 27.70766393 40 29 C39.34 29 38.68 29 38 29 C38 29.66 38 30.32 38 31 C34.04 31.495 34.04 31.495 30 32 C30 32.66 30 33.32 30 34 C27.525 34.495 27.525 34.495 25 35 C24.67 34.34 24.34 33.68 24 33 C24.99 32.505 24.99 32.505 26 32 C26.54579815 29.75001556 26.54579815 29.75001556 26.75 27.125 C26.84796875 26.24070313 26.9459375 25.35640625 27.046875 24.4453125 C27.21459354 21.7383513 27.21459354 21.7383513 25 19 C24.34 18.01 23.68 17.02 23 16 C22.01 15.67 21.02 15.34 20 15 C19.38125 14.34 18.7625 13.68 18.125 13 C15.71248065 10.72939356 14.23922825 10.35991425 11 10 C11 9.34 11 8.68 11 8 C10.34 8 9.68 8 9 8 C9 8.66 9 9.32 9 10 C4.56923077 12.09230769 4.56923077 12.09230769 1.6875 11.625 C1.130625 11.41875 0.57375 11.2125 0 11 C0.7115625 10.1028125 0.7115625 10.1028125 1.4375 9.1875 C3.16465744 6.99617076 3.16465744 6.99617076 4 4 C2.68 3.34 1.36 2.68 0 2 C0 1.34 0 0.68 0 0 Z " fill="#5E39F6" transform="translate(119,176)"/>
<path d="M0 0 C2.42550988 1.44474815 4.73936267 2.90854007 7.0625 4.5 C12.17507639 8.01601945 12.17507639 8.01601945 18 10 C18 10.66 18 11.32 18 12 C18.804375 12.12375 19.60875 12.2475 20.4375 12.375 C21.283125 12.58125 22.12875 12.7875 23 13 C23.495 13.99 23.495 13.99 24 15 C26.02463255 15.65213292 26.02463255 15.65213292 28 16 C28 16.66 28 17.32 28 18 C26.02 17.67 24.04 17.34 22 17 C22 16.34 22 15.68 22 15 C19.69 15.33 17.38 15.66 15 16 C16.32 16.66 17.64 17.32 19 18 C18.67 18.66 18.34 19.32 18 20 C12.62923771 18.48734859 8.23754384 15.98084805 3.5 13.125 C2.76652344 12.69058594 2.03304687 12.25617188 1.27734375 11.80859375 C-2.89920234 9.3205976 -6.98076654 6.73460504 -11 4 C-5.52672471 -1.6557178 -5.52672471 -1.6557178 0 0 Z " fill="#437BEE" transform="translate(78,216)"/>
<path d="M0 0 C5.61 0 11.22 0 17 0 C17 0.99 17 1.98 17 3 C13.37 3 9.74 3 6 3 C5.67 5.97 5.34 8.94 5 12 C7.97 12 10.94 12 14 12 C14 12.66 14 13.32 14 14 C11.03 14 8.06 14 5 14 C5 17.63 5 21.26 5 25 C6.32 24.67 7.64 24.34 9 24 C10.41534778 23.93543121 11.83337689 23.91388961 13.25 23.9375 C15.10625 23.9684375 15.10625 23.9684375 17 24 C17 24.99 17 25.98 17 27 C11.39 27 5.78 27 0 27 C0 18.09 0 9.18 0 0 Z " fill="#2224A8" transform="translate(276,197)"/>
<path d="M0 0 C5.61 0 11.22 0 17 0 C17 0.99 17 1.98 17 3 C13.04 2.67 9.08 2.34 5 2 C5 5.3 5 8.6 5 12 C7.97 12 10.94 12 14 12 C14 12.66 14 13.32 14 14 C11.03 14 8.06 14 5 14 C5 17.63 5 21.26 5 25 C6.32 24.67 7.64 24.34 9 24 C10.41534778 23.93543121 11.83337689 23.91388961 13.25 23.9375 C15.10625 23.9684375 15.10625 23.9684375 17 24 C17 24.99 17 25.98 17 27 C11.39 27 5.78 27 0 27 C0 18.09 0 9.18 0 0 Z " fill="#2829AA" transform="translate(389,197)"/>
<path d="M0 0 C2.1875 2.0234375 2.1875 2.0234375 4 4 C-1.50630829 7.40044744 -1.50630829 7.40044744 -3.66040039 8.71240234 C-6.43890521 10.4063467 -9.17825188 12.11996327 -11.87890625 13.9375 C-18.23774758 18.13142283 -18.23774758 18.13142283 -22.625 17.375 C-23.40875 16.92125 -24.1925 16.4675 -25 16 C-24.67 15.01 -24.34 14.02 -24 13 C-23.01 13 -22.02 13 -21 13 C-21 12.34 -21 11.68 -21 11 C-20.34 11 -19.68 11 -19 11 C-18.814375 10.2575 -18.62875 9.515 -18.4375 8.75 C-16.43829209 4.92542834 -13.77192295 3.84764623 -10 2 C-9.319375 1.5875 -8.63875 1.175 -7.9375 0.75 C-5.10768564 -0.34541201 -3.0039942 -0.37549927 0 0 Z " fill="#5A44F6" transform="translate(159,216)"/>
<path d="M0 0 C1.98 0 3.96 0 6 0 C8.64 6.27 11.28 12.54 14 19 C16.31 12.73 18.62 6.46 21 0 C21.99 0 22.98 0 24 0 C23.37933273 3.50966963 22.46669668 6.68727261 21.1875 10.01171875 C20.65769531 11.39520508 20.65769531 11.39520508 20.1171875 12.80664062 C19.56417969 14.23266602 19.56417969 14.23266602 19 15.6875 C18.63132812 16.64978516 18.26265625 17.61207031 17.8828125 18.60351562 C15.16636588 25.66726824 15.16636588 25.66726824 14 28 C13.34 28 12.68 28 12 28 C10.28866179 24.17414262 8.57972713 20.34722385 6.87304688 16.51928711 C6.29168173 15.21625534 5.70965186 13.91351994 5.12695312 12.61108398 C4.29123268 10.74279398 3.45788081 8.87346356 2.625 7.00390625 C2.12226563 5.87799072 1.61953125 4.7520752 1.1015625 3.59204102 C0 1 0 1 0 0 Z " fill="#1B1ABB" transform="translate(361,197)"/>
<path d="M0 0 C-1.36669947 4.84633308 -3.51405732 6.40511802 -7.8125 8.875 C-8.85019531 9.49117187 -9.88789062 10.10734375 -10.95703125 10.7421875 C-14.33160799 12.13707031 -15.60249797 12.16109918 -19 11 C-21.02237052 10.04605164 -23.0282696 9.05464649 -25 8 C-25 7.34 -25 6.68 -25 6 C-26.65 5.67 -28.3 5.34 -30 5 C-27.3333581 3.66667905 -25.83319697 4.32897967 -23 5 C-23 3.35 -23 1.7 -23 0 C-21.2675 0.5878125 -21.2675 0.5878125 -19.5 1.1875 C-15.20549607 2.29331583 -12.90554401 1.45104264 -8.96484375 -0.328125 C-5.74553391 -1.42896256 -3.26713178 -0.7487177 0 0 Z " fill="#27B8EB" transform="translate(131,226)"/>
<path d="M0 0 C0.66 0.33 1.32 0.66 2 1 C1.67 1.66 1.34 2.32 1 3 C0.34 3 -0.32 3 -1 3 C-1 3.66 -1 4.32 -1 5 C-1.99 5.33 -2.98 5.66 -4 6 C-4 6.66 -4 7.32 -4 8 C-3.01 8.33 -2.02 8.66 -1 9 C-1 9.66 -1 10.32 -1 11 C-3.57763075 12.51061151 -6.16129605 14.00858405 -8.75 15.5 C-9.47960937 15.92925781 -10.20921875 16.35851562 -10.9609375 16.80078125 C-12.02441406 17.40986328 -12.02441406 17.40986328 -13.109375 18.03125 C-13.75874023 18.40830078 -14.40810547 18.78535156 -15.07714844 19.17382812 C-17 20 -17 20 -21 20 C-21.33 19.01 -21.66 18.02 -22 17 C-21.67 16.34 -21.34 15.68 -21 15 C-20.34 15 -19.68 15 -19 15 C-19 14.34 -19 13.68 -19 13 C-13.45736873 7.58333763 -7.00414504 3.32670318 0 0 Z " fill="#5353F1" transform="translate(139,224)"/>
<path d="M0 0 C1.98 0 3.96 0 6 0 C6.94242818 9.03721311 7.11157151 17.92551747 7 27 C5.35 27 3.7 27 2 27 C1.67 19.74 1.34 12.48 1 5 C0.67 5 0.34 5 0 5 C0 3.35 0 1.7 0 0 Z " fill="#1E1DB7" transform="translate(197,197)"/>
<path d="M0 0 C0.66 0.33 1.32 0.66 2 1 C0.75 3.4375 0.75 3.4375 -1 6 C-3 6.625 -3 6.625 -5 7 C-5.495 7.495 -5.99 7.99 -6.5 8.5 C-8 10 -8 10 -10.0625 10.4375 C-10.701875 10.623125 -11.34125 10.80875 -12 11 C-12.309375 11.66 -12.61875 12.32 -12.9375 13 C-13.288125 13.66 -13.63875 14.32 -14 15 C-15.66666667 15.33333333 -17.33333333 15.66666667 -19 16 C-20.22527948 17.95021083 -20.22527948 17.95021083 -21 20 C-21.66 20.33 -22.32 20.66 -23 21 C-23 21.66 -23 22.32 -23 23 C-23.66 23 -24.32 23 -25 23 C-25 21.02 -25 19.04 -25 17 C-25.66 16.67 -26.32 16.34 -27 16 C-22.6819174 13.3985322 -18.35894977 10.80549018 -14.03173828 8.21923828 C-12.15035442 7.09022711 -10.27568734 5.95087643 -8.40234375 4.80859375 C-7.34144531 4.17050781 -6.28054687 3.53242188 -5.1875 2.875 C-4.23230469 2.29492188 -3.27710937 1.71484375 -2.29296875 1.1171875 C-1.15794922 0.56417969 -1.15794922 0.56417969 0 0 Z " fill="#4A7BEB" transform="translate(101,181)"/>
<path d="M0 0 C1.2065625 0.0309375 1.2065625 0.0309375 2.4375 0.0625 C2.7675 1.0525 3.0975 2.0425 3.4375 3.0625 C0.66343055 7.57036286 -3.00501067 9.6698181 -7.5625 12.0625 C-8.83430155 12.83173481 -10.10516772 13.6025187 -11.375 14.375 C-12.426875 14.931875 -13.47875 15.48875 -14.5625 16.0625 C-15.2225 15.7325 -15.8825 15.4025 -16.5625 15.0625 C-15.5725 14.7325 -14.5825 14.4025 -13.5625 14.0625 C-13.2325 13.0725 -12.9025 12.0825 -12.5625 11.0625 C-10.9125 10.7325 -9.2625 10.4025 -7.5625 10.0625 C-7.2325 8.4125 -6.9025 6.7625 -6.5625 5.0625 C-7.09875 5.743125 -7.635 6.42375 -8.1875 7.125 C-10.5625 9.0625 -10.5625 9.0625 -13.8125 8.8125 C-15.17375 8.44125 -15.17375 8.44125 -16.5625 8.0625 C-14.16498782 5.28392628 -11.85500217 4.20287252 -8.4375 2.9375 C-0.62196602 0.0151699 -0.62196602 0.0151699 0 0 Z " fill="#4188F4" transform="translate(153.5625,208.9375)"/>
<path d="M0 0 C1.98 0 3.96 0 6 0 C6 0.66 6 1.32 6 2 C5.34 2 4.68 2 4 2 C4 9.92 4 17.84 4 26 C2.68 25.67 1.36 25.34 0 25 C0 16.75 0 8.5 0 0 Z " fill="#1A19C8" transform="translate(412,198)"/>
<path d="M0 0 C4.62 0 9.24 0 14 0 C13.01 1.485 13.01 1.485 12 3 C8.875 3.1875 8.875 3.1875 6 3 C5.67 5.97 5.34 8.94 5 12 C4.67 12 4.34 12 4 12 C3.67 9.36 3.34 6.72 3 4 C2.67 11.26 2.34 18.52 2 26 C2.66 26 3.32 26 4 26 C4 22.7 4 19.4 4 16 C4.33 16 4.66 16 5 16 C5 19.63 5 23.26 5 27 C3.35 27 1.7 27 0 27 C0 18.09 0 9.18 0 0 Z " fill="#2222B2" transform="translate(211,197)"/>
<path d="M0 0 C10.02578245 4.80434259 19.54487517 10.16006996 29 16 C25.23677779 17.10823705 23.53070928 16.85362237 20 15 C19.34 14.319375 18.68 13.63875 18 12.9375 C15.67097925 10.68126115 14.17138267 10.35237585 11 10 C11 9.34 11 8.68 11 8 C10.34 8 9.68 8 9 8 C9 8.66 9 9.32 9 10 C4.56923077 12.09230769 4.56923077 12.09230769 1.6875 11.625 C1.130625 11.41875 0.57375 11.2125 0 11 C0.7115625 10.1028125 0.7115625 10.1028125 1.4375 9.1875 C3.16465744 6.99617076 3.16465744 6.99617076 4 4 C2.68 3.34 1.36 2.68 0 2 C0 1.34 0 0.68 0 0 Z " fill="#5855EA" transform="translate(119,176)"/>
<path d="M0 0 C3.125 2.375 3.125 2.375 6 5 C6.99 5.66 7.98 6.32 9 7 C9 7.66 9 8.32 9 9 C2.48208608 9.3540919 -2.17521449 9.03901852 -8 6 C-7.625 3.5625 -7.625 3.5625 -7 1 C-4.33978324 -0.33010838 -2.96663565 -0.40454123 0 0 Z " fill="#13DFE7" transform="translate(79,208)"/>
<path d="M0 0 C4.30864675 1.3041008 8.01711984 2.92899893 11.875 5.25 C12.84179688 5.81203125 13.80859375 6.3740625 14.8046875 6.953125 C17 9 17 9 17.3203125 12.234375 C17.21460937 13.14703125 17.10890625 14.0596875 17 15 C12.6822542 14.49202991 8.96697886 13.80317221 5 12 C5 11.34 5 10.68 5 10 C5.99 10 6.98 10 8 10 C8 9.01 8 8.02 8 7 C6.865625 6.401875 5.73125 5.80375 4.5625 5.1875 C1.125 3.375 1.125 3.375 0 0 Z " fill="#22C6EF" transform="translate(91,216)"/>
<path d="M0 0 C0 0.99 0 1.98 0 3 C-1.98779297 4.53393555 -1.98779297 4.53393555 -4.7421875 6.13671875 C-5.72574219 6.71357422 -6.70929688 7.29042969 -7.72265625 7.88476562 C-9.28306641 8.77711914 -9.28306641 8.77711914 -10.875 9.6875 C-11.90753906 10.29400391 -12.94007813 10.90050781 -14.00390625 11.52539062 C-21.70486502 16 -21.70486502 16 -24 16 C-24 15.01 -24 14.02 -24 13 C-24.66 12.67 -25.32 12.34 -26 12 C-24.6078125 12.0309375 -24.6078125 12.0309375 -23.1875 12.0625 C-19.97713989 12.15769604 -19.97713989 12.15769604 -17 11 C-17 10.34 -17 9.68 -17 9 C-16.01 9 -15.02 9 -14 9 C-14 8.34 -14 7.68 -14 7 C-13.38125 6.938125 -12.7625 6.87625 -12.125 6.8125 C-9.74657728 6.17434156 -9.74657728 6.17434156 -8.75 3.5625 C-7.90636708 1.12508773 -7.90636708 1.12508773 -8 -1 C-4.37673261 -2.2077558 -3.35853631 -1.54311128 0 0 Z " fill="#5A43D5" transform="translate(162,218)"/>
<path d="M0 0 C2.12999997 3.79039366 2.16702456 6.65736138 2 11 C2.66 10.34 3.32 9.68 4 9 C3.45466911 12.81731623 1.93170573 14.55691189 -1 17 C-5.02903842 19.17785861 -8.46225233 19.39804804 -13 19 C-16.4375 17.5 -16.4375 17.5 -19 16 C-19 15.34 -19 14.68 -19 14 C-18.34 14 -17.68 14 -17 14 C-17 14.66 -17 15.32 -17 16 C-16.34 16 -15.68 16 -15 16 C-14.67 15.34 -14.34 14.68 -14 14 C-13.443125 14.350625 -12.88625 14.70125 -12.3125 15.0625 C-9.29445156 16.28603315 -8.02578655 16.21031462 -5 15 C-0.82904084 10.36560093 -0.26593153 5.98345934 0 0 Z " fill="#2021AF" transform="translate(355,206)"/>
<path d="M0 0 C0 2.31 0 4.62 0 7 C0.61875 6.814375 1.2375 6.62875 1.875 6.4375 C4 6 4 6 6 7 C6 7.99 6 8.98 6 10 C7.32 10 8.64 10 10 10 C10 10.66 10 11.32 10 12 C10.66 12 11.32 12 12 12 C12 12.99 12 13.98 12 15 C12.99 15 13.98 15 15 15 C15 15.66 15 16.32 15 17 C10.26525903 15.3003494 6.03832889 12.86340973 1.6875 10.375 C0.94693359 9.95476562 0.20636719 9.53453125 -0.55664062 9.1015625 C-2.37269011 8.07051505 -4.18656533 7.03563954 -6 6 C-6 5.01 -6 4.02 -6 3 C-1.66666667 0 -1.66666667 0 0 0 Z " fill="#4D8ADE" transform="translate(74,215)"/>
<path d="M0 0 C-0.67799716 2.71198863 -1.37931132 4.51840541 -3.62109375 6.2578125 C-5.5 7.375 -5.5 7.375 -9 9 C-9.66 8.67 -10.32 8.34 -11 8 C-11 6.68 -11 5.36 -11 4 C-12.11375 4.020625 -13.2275 4.04125 -14.375 4.0625 C-18 4 -18 4 -20 3 C-19.67 2.34 -19.34 1.68 -19 1 C-18.41863281 1.1959375 -17.83726563 1.391875 -17.23828125 1.59375 C-14.58462432 2.07539105 -13.59198099 1.63612951 -11.1875 0.5 C-6.99780404 -1.23719101 -4.37917708 -1.00356141 0 0 Z " fill="#30A8F2" transform="translate(131,226)"/>
<path d="M0 0 C0.99 0 1.98 0 3 0 C2.37933273 3.50966963 1.46669668 6.68727261 0.1875 10.01171875 C-0.34230469 11.39520508 -0.34230469 11.39520508 -0.8828125 12.80664062 C-1.43582031 14.23266602 -1.43582031 14.23266602 -2 15.6875 C-2.36867188 16.64978516 -2.73734375 17.61207031 -3.1171875 18.60351562 C-5.83363412 25.66726824 -5.83363412 25.66726824 -7 28 C-7.66 28 -8.32 28 -9 28 C-9.33 26.68 -9.66 25.36 -10 24 C-9.01 24.33 -8.02 24.66 -7 25 C-7.31710937 23.94232422 -7.31710937 23.94232422 -7.640625 22.86328125 C-8.09194705 19.26742186 -7.24526401 17.46590932 -5.75 14.1875 C-5.28722656 13.14464844 -4.82445312 12.10179687 -4.34765625 11.02734375 C-3.90292969 10.02832031 -3.45820313 9.02929688 -3 8 C-1.9588074 5.34637684 -0.97836284 2.67762462 0 0 Z " fill="#2929AB" transform="translate(382,197)"/>
<path d="M0 0 C1.65 0 3.3 0 5 0 C5 0.66 5 1.32 5 2 C4.34 2 3.68 2 3 2 C3 9.59 3 17.18 3 25 C2.01 25 1.02 25 0 25 C0 16.75 0 8.5 0 0 Z " fill="#1110D3" transform="translate(251,198)"/>
<path d="M0 0 C1.65 0 3.3 0 5 0 C5 0.66 5 1.32 5 2 C4.34 2 3.68 2 3 2 C3 9.59 3 17.18 3 25 C2.01 25 1.02 25 0 25 C0 16.75 0 8.5 0 0 Z " fill="#1011D1" transform="translate(277,198)"/>
<path d="M0 0 C1.65 0 3.3 0 5 0 C4.67 0.66 4.34 1.32 4 2 C3.84733388 3.73868744 3.75067404 5.48247501 3.68359375 7.2265625 C3.64169922 8.2578125 3.59980469 9.2890625 3.55664062 10.3515625 C3.49766602 11.97191406 3.49766602 11.97191406 3.4375 13.625 C3.39431641 14.71296875 3.35113281 15.8009375 3.30664062 16.921875 C3.2003547 19.6144517 3.09831943 22.30712253 3 25 C2.01 25 1.02 25 0 25 C0 16.75 0 8.5 0 0 Z " fill="#1211CD" transform="translate(390,198)"/>
<path d="M0 0 C1.65 0 3.3 0 5 0 C6.06775224 1.96466413 7.06553465 3.96855359 8 6 C7.67 6.66 7.34 7.32 7 8 C4 4.375 4 4.375 4 1 C3.01 1 2.02 1 1 1 C1.165 1.94875 1.33 2.8975 1.5 3.875 C2.59461759 11.63114747 1.9976789 19.26798852 1 27 C0.01 27 -0.98 27 -2 27 C-1.86015045 23.62472444 -1.71204731 20.24985869 -1.5625 16.875 C-1.52318359 15.92367187 -1.48386719 14.97234375 -1.44335938 13.9921875 C-1.22946977 9.25371013 -0.93438179 4.66405699 0 0 Z " fill="#211EB0" transform="translate(300,197)"/>
<path d="M0 0 C0.99 0 1.98 0 3 0 C4.19190363 8.34332544 4.09283549 16.59323022 4 25 C3.01 25 2.02 25 1 25 C1 18.73 1 12.46 1 6 C0.01 6 -0.98 6 -2 6 C-1.34 4.02 -0.68 2.04 0 0 Z " fill="#1411D0" transform="translate(323,198)"/>
<path d="M0 0 C2.81042113 0.29073322 3.83347282 0.81563062 5.75 2.9375 C7.52950996 7.29729941 7.24370596 11.35153438 7 16 C6.34 16 5.68 16 5 16 C4.67 16.99 4.34 17.98 4 19 C2.6728739 15.0186217 2.93084087 11.14954773 3 7 C2.34 7 1.68 7 1 7 C0.67 4.69 0.34 2.38 0 0 Z " fill="#1E1ABB" transform="translate(353,199)"/>
<path d="M0 0 C1.134375 0.020625 2.26875 0.04125 3.4375 0.0625 C3.4375 0.7225 3.4375 1.3825 3.4375 2.0625 C4.55125 2.145 5.665 2.2275 6.8125 2.3125 C10.4375 3.0625 10.4375 3.0625 11.875 5.125 C12.060625 5.764375 12.24625 6.40375 12.4375 7.0625 C10.4575 7.3925 8.4775 7.7225 6.4375 8.0625 C6.4375 7.4025 6.4375 6.7425 6.4375 6.0625 C4.1275 5.7325 1.8175 5.4025 -0.5625 5.0625 C-0.5625 4.4025 -0.5625 3.7425 -0.5625 3.0625 C-1.8825 2.4025 -3.2025 1.7425 -4.5625 1.0625 C-3.5625 0.0625 -3.5625 0.0625 0 0 Z " fill="#496CF3" transform="translate(96.5625,230.9375)"/>
<path d="M0 0 C0.99 0.33 1.98 0.66 3 1 C3 3.31 3 5.62 3 8 C2.34 7.67 1.68 7.34 1 7 C-0.98 11.29 -2.96 15.58 -5 20 C-5.99 19.01 -6.98 18.02 -8 17 C-7.73445312 16.47921875 -7.46890625 15.9584375 -7.1953125 15.421875 C-5.69878689 12.38969892 -4.28808257 9.32191863 -2.875 6.25 C-2.33617187 5.07953125 -1.79734375 3.9090625 -1.2421875 2.703125 C-0.83226562 1.81109375 -0.42234375 0.9190625 0 0 Z " fill="#2A28B1" transform="translate(196,200)"/>
<path d="M0 0 C13.52019231 -0.37211538 13.52019231 -0.37211538 15.94921875 1.51171875 C16.29597656 2.00285156 16.64273437 2.49398437 17 3 C16.34 3 15.68 3 15 3 C15 4.98 15 6.96 15 9 C13.66666667 7 12.33333333 5 11 3 C7.7 2.34 4.4 1.68 1 1 C1 9.25 1 17.5 1 26 C0.67 26 0.34 26 0 26 C0 17.42 0 8.84 0 0 Z " fill="#292BB8" transform="translate(250,197)"/>
<path d="M0 0 C5.61 0 11.22 0 17 0 C17 0.99 17 1.98 17 3 C15.27054347 2.85764543 13.54144346 2.71095618 11.8125 2.5625 C10.36810547 2.44068359 10.36810547 2.44068359 8.89453125 2.31640625 C6.24248442 2.02650639 3.61603677 1.52320735 1 1 C1 9.58 1 18.16 1 27 C0.67 27 0.34 27 0 27 C0 18.09 0 9.18 0 0 Z " fill="#2C2EB1" transform="translate(389,197)"/>
<path d="M0 0 C4.75 0.75 4.75 0.75 7 3 C10.10943563 5.55417927 13.39385048 7.23528853 17 9 C17.99 9.66 18.98 10.32 20 11 C20 11.99 20 12.98 20 14 C17.32500685 12.68332049 14.70558937 11.30154238 12.109375 9.8359375 C11.40039062 9.43632812 10.69140625 9.03671875 9.9609375 8.625 C9.23132813 8.2125 8.50171875 7.8 7.75 7.375 C7.00492187 6.95476562 6.25984375 6.53453125 5.4921875 6.1015625 C3.66097237 5.06856935 1.83042056 4.03440045 0 3 C0 2.01 0 1.02 0 0 Z " fill="#3A7DEC" transform="translate(86,210)"/>
<path d="M0 0 C5.80342274 1.48805711 10.17590879 4.59097555 15 8 C12.30925 9.345375 10.96806747 8.71529269 8.0625 8.0625 C5.23734783 7.4342261 2.90587915 7 0 7 C0 4.69 0 2.38 0 0 Z " fill="#348BEF" transform="translate(74,215)"/>
<path d="M0 0 C0.99 0.495 0.99 0.495 2 1 C2.28926947 3.02488628 2.57272154 5.05244016 2.75390625 7.08984375 C2.90406878 9.08252033 2.90406878 9.08252033 4 11 C3.67 11.66 3.34 12.32 3 13 C2.77377919 14.70363822 2.59111527 16.41328701 2.4375 18.125 C2.35371094 19.03507812 2.26992187 19.94515625 2.18359375 20.8828125 C2.12300781 21.58148438 2.06242188 22.28015625 2 23 C1.34 23 0.68 23 0 23 C0 15.41 0 7.82 0 0 Z " fill="#1111D2" transform="translate(213,200)"/>
<path d="M0 0 C0.33 0 0.66 0 1 0 C1.84327749 8.35748222 2.12190678 16.60197746 2 25 C1.01 25 0.02 25 -1 25 C-0.67 16.75 -0.34 8.5 0 0 Z " fill="#2A2AA1" transform="translate(175,199)"/>
<path d="M0 0 C1.8125 1.5 1.8125 1.5 3 3 C-0.19902639 3.08886184 -2.92677456 2.91058531 -6 2 C-6 2.66 -6 3.32 -6 4 C-4.35 4 -2.7 4 -1 4 C-1 4.99 -1 5.98 -1 7 C-0.34 7 0.32 7 1 7 C1 7.66 1 8.32 1 9 C-1.97 8.01 -4.94 7.02 -8 6 C-7.625 3.5625 -7.625 3.5625 -7 1 C-4.45132831 -0.27433584 -2.82594567 -0.27570202 0 0 Z " fill="#1AD9EB" transform="translate(79,208)"/>
<path d="M0 0 C0.7734375 0.495 0.7734375 0.495 1.5625 1 C0.5725 1.495 0.5725 1.495 -0.4375 2 C-0.1075 3.32 0.2225 4.64 0.5625 6 C-0.118125 5.505 -0.79875 5.01 -1.5 4.5 C-5.03215009 2.69634889 -7.52386991 2.76978647 -11.4375 3 C-11.7675 2.01 -12.0975 1.02 -12.4375 0 C-8.17949462 -1.41933513 -4.20838462 -1.72651677 0 0 Z " fill="#2023AF" transform="translate(353.4375,197)"/>
<path d="M0 0 C3.63 0 7.26 0 11 0 C11 1.32 11 2.64 11 4 C7.7 4 4.4 4 1 4 C0.67 2.68 0.34 1.36 0 0 Z " fill="#2222A1" transform="translate(234,213)"/>
<path d="M0 0 C0 0.99 0 1.98 0 3 C-2.97 3.66 -5.94 4.32 -9 5 C-8.67 3.02 -8.34 1.04 -8 -1 C-4.37673261 -2.2077558 -3.35853631 -1.54311128 0 0 Z " fill="#5731E3" transform="translate(162,218)"/>
<path d="M0 0 C1.98 0 3.96 0 6 0 C6.66 2.31 7.32 4.62 8 7 C7.01 6.34 6.02 5.68 5 5 C5.66 8.3 6.32 11.6 7 15 C4.39473112 12.39473112 3.65865776 9.82060766 2.375 6.375 C1.92898438 5.18648437 1.48296875 3.99796875 1.0234375 2.7734375 C0.68570312 1.85820312 0.34796875 0.94296875 0 0 Z " fill="#1D1DAF" transform="translate(361,197)"/>
<path d="M0 0 C0 0.33 0 0.66 0 1 C-1.11375 1.12375 -1.11375 1.12375 -2.25 1.25 C-5.12862642 1.77070943 -5.12862642 1.77070943 -6.875 4.0625 C-9 6 -9 6 -12.75 6.25 C-13.8225 6.1675 -14.895 6.085 -16 6 C-11.62778157 0.85621361 -6.67289272 -1.95304177 0 0 Z " fill="#5767E0" transform="translate(119,175)"/>
<path d="M0 0 C0.66 0.33 1.32 0.66 2 1 C-0.46315789 5.80315789 -0.46315789 5.80315789 -2.875 6.6875 C-3.57625 6.790625 -4.2775 6.89375 -5 7 C-6.6744239 7.6469365 -8.34302621 8.30959426 -10 9 C-10.66 8.34 -11.32 7.68 -12 7 C-10.04754815 5.80285445 -8.08785003 4.61751926 -6.125 3.4375 C-5.03445312 2.77621094 -3.94390625 2.11492187 -2.8203125 1.43359375 C-1.88960937 0.96050781 -0.95890625 0.48742187 0 0 Z " fill="#5575E3" transform="translate(101,181)"/>
<path d="M0 0 C3.01191399 1.74373968 4.72504283 3.11847904 5.77734375 6.4921875 C6.26214204 8.99049108 6.67726329 11.47590991 7 14 C5.68 14 4.36 14 3 14 C2.87882812 13.39671875 2.75765625 12.7934375 2.6328125 12.171875 C2.46523438 11.37265625 2.29765625 10.5734375 2.125 9.75 C1.96257812 8.96109375 1.80015625 8.1721875 1.6328125 7.359375 C1.00849925 5.03168856 0.15161458 3.10968048 -1 1 C-0.67 0.67 -0.34 0.34 0 0 Z " fill="#1313C8" transform="translate(365,200)"/>
<path d="M0 0 C0.185625 0.61875 0.37125 1.2375 0.5625 1.875 C2.72285976 5.0685753 5.34800622 5.16708914 9 6 C9.99 6.33 10.98 6.66 12 7 C9 9 9 9 6.6875 8.8125 C3.57930187 7.87281219 0.85906047 6.5292649 -2 5 C-2 4.34 -2 3.68 -2 3 C-3.65 2.67 -5.3 2.34 -7 2 C-4.3333581 0.66667905 -2.83319697 1.32897967 0 2 C0 1.34 0 0.68 0 0 Z " fill="#31AFF4" transform="translate(108,229)"/>
<path d="M0 0 C0.66 0 1.32 0 2 0 C2.125 6.75 2.125 6.75 1 9 C0.76827173 11.54615009 0.58105471 14.07396225 0.4375 16.625 C0.39431641 17.33140625 0.35113281 18.0378125 0.30664062 18.765625 C0.20055249 20.51018537 0.09977111 22.25506697 0 24 C-0.33 24 -0.66 24 -1 24 C-1.02909763 20.75001888 -1.04683161 17.50007143 -1.0625 14.25 C-1.07087891 13.32960937 -1.07925781 12.40921875 -1.08789062 11.4609375 C-1.09111328 10.57148438 -1.09433594 9.68203125 -1.09765625 8.765625 C-1.10289307 7.94868164 -1.10812988 7.13173828 -1.11352539 6.29003906 C-1.00299021 4.06031865 -0.62055567 2.13866245 0 0 Z " fill="#1210CE" transform="translate(413,199)"/>
<path d="M0 0 C2.63180464 3.94770696 1.8008948 6.73980149 1.125 11.1875 C1.02058594 11.93708984 0.91617187 12.68667969 0.80859375 13.45898438 C0.5495672 15.30749204 0.27616034 17.15397432 0 19 C-0.66 19 -1.32 19 -2 19 C-2 14.38 -2 9.76 -2 5 C-1.34 5 -0.68 5 0 5 C0 3.35 0 1.7 0 0 Z " fill="#1210D3" transform="translate(337,199)"/>
<path d="M0 0 C0 0.99 0 1.98 0 3 C-5.28 3 -10.56 3 -16 3 C-16 2.67 -16 2.34 -16 2 C-10.42932723 0.40837921 -5.78898419 -0.20674944 0 0 Z " fill="#1B1EAD" transform="translate(406,221)"/>
<path d="M0 0 C0.33 0.99 0.66 1.98 1 3 C1.66 3.66 2.32 4.32 3 5 C2.030625 5.268125 1.06125 5.53625 0.0625 5.8125 C-0.948125 6.204375 -1.95875 6.59625 -3 7 C-3.33 7.99 -3.66 8.98 -4 10 C-4.33 9.01 -4.66 8.02 -5 7 C-5.99 6.67 -6.98 6.34 -8 6 C-8 5.34 -8 4.68 -8 4 C-6.865625 3.71125 -5.73125 3.4225 -4.5625 3.125 C-3.386875 2.75375 -2.21125 2.3825 -1 2 C-0.67 1.34 -0.34 0.68 0 0 Z " fill="#2022AD" transform="translate(224,205)"/>
<path d="M0 0 C1.98 0.99 3.96 1.98 6 3 C4.71034824 4.37562854 3.37310707 5.70766393 2 7 C1.34 7 0.68 7 0 7 C0 7.66 0 8.32 0 9 C-0.99 8.67 -1.98 8.34 -3 8 C-2.5359375 7.13375 -2.5359375 7.13375 -2.0625 6.25 C-1.07416636 4.15705816 -0.4831387 2.25464725 0 0 Z " fill="#456ED5" transform="translate(157,207)"/>
<path d="M0 0 C1.32 0 2.64 0 4 0 C4 3.3 4 6.6 4 10 C3.01 10 2.02 10 1 10 C0.855625 9.05125 0.71125 8.1025 0.5625 7.125 C0.17064601 4.1065506 0.17064601 4.1065506 -1 2 C-0.67 1.34 -0.34 0.68 0 0 Z " fill="#1510CC" transform="translate(198,198)"/>
<path d="M0 0 C2.475 0.99 2.475 0.99 5 2 C4.67 4.31 4.34 6.62 4 9 C2.68 9 1.36 9 0 9 C0 6.03 0 3.06 0 0 Z " fill="#1715C1" transform="translate(264,199)"/>
<path d="M0 0 C3.96 1.98 7.92 3.96 12 6 C12 6.99 12 7.98 12 9 C10.02 9.99 8.04 10.98 6 12 C6 11.34 6 10.68 6 10 C7.32 9.67 8.64 9.34 10 9 C10 8.34 10 7.68 10 7 C8.02 6.34 6.04 5.68 4 5 C4 4.34 4 3.68 4 3 C2.68 3 1.36 3 0 3 C0 2.01 0 1.02 0 0 Z " fill="#5A3FC9" transform="translate(150,194)"/>
<path d="M0 0 C0.66 0 1.32 0 2 0 C2 0.99 2 1.98 2 3 C3.32 3 4.64 3 6 3 C6 3.66 6 4.32 6 5 C6.66 5 7.32 5 8 5 C8 5.99 8 6.98 8 8 C8.99 8 9.98 8 11 8 C11 8.66 11 9.32 11 10 C2.45 6.675 2.45 6.675 0 3 C0 2.01 0 1.02 0 0 Z " fill="#4C80E4" transform="translate(78,222)"/>
<path d="M0 0 C0.33 0 0.66 0 1 0 C1.33 6.93 1.66 13.86 2 21 C1.01 21 0.02 21 -1 21 C-0.67 14.07 -0.34 7.14 0 0 Z " fill="#272994" transform="translate(299,203)"/>
<path d="M0 0 C0.99 0 1.98 0 3 0 C4.33333333 2.66666667 5.66666667 5.33333333 7 8 C4.69 7.67 2.38 7.34 0 7 C0 4.69 0 2.38 0 0 Z " fill="#1715D1" transform="translate(301,198)"/>
<path d="M0 0 C5.28 0 10.56 0 16 0 C16 0.99 16 1.98 16 3 C14.27054347 2.85764543 12.54144346 2.71095618 10.8125 2.5625 C9.36810547 2.44068359 9.36810547 2.44068359 7.89453125 2.31640625 C5.21350398 2.02333849 2.6337014 1.57296246 0 1 C0 0.67 0 0.34 0 0 Z " fill="#2B2CAF" transform="translate(277,197)"/>
<path d="M0 0 C2.31 0.33 4.62 0.66 7 1 C3.4912812 4.09592835 0.50802601 5.74194623 -4 7 C-3.34 5.35 -2.68 3.7 -2 2 C-1.34 2 -0.68 2 0 2 C0 1.34 0 0.68 0 0 Z " fill="#5A58DB" transform="translate(126,236)"/>
<path d="M0 0 C1.94113934 0.92994117 3.8777951 1.8692453 5.8125 2.8125 C6.89144531 3.33457031 7.97039062 3.85664063 9.08203125 4.39453125 C11.56579702 5.76110117 13.1799378 6.87340101 15 9 C8.80486508 8.6282919 6.37685585 7.07149382 2 3 C1.34 2.67 0.68 2.34 0 2 C0 1.34 0 0.68 0 0 Z " fill="#624DD4" transform="translate(133,184)"/>
<path d="M0 0 C1.8125 0.1875 1.8125 0.1875 4 1 C5.75 3.5625 5.75 3.5625 7 6 C6.34 6 5.68 6 5 6 C4.67 6.99 4.34 7.98 4 9 C1.47740939 7.02579865 1.0070192 6.03254358 0.3125 2.8125 C0.209375 1.884375 0.10625 0.95625 0 0 Z " fill="#1716BD" transform="translate(220,211)"/>
<path d="M0 0 C5.26170694 1.41167747 8.72171358 3.74850232 13 7 C12.01 7.495 12.01 7.495 11 8 C8.96587579 7.07137808 6.96752828 6.06246527 5 5 C4.236875 4.67 3.47375 4.34 2.6875 4 C1 3 1 3 0 0 Z " fill="#29C3F7" transform="translate(91,216)"/>
<path d="M0 0 C2.475 0.99 2.475 0.99 5 2 C2 3.5 2 3.5 -1 5 C-1.33 5.99 -1.66 6.98 -2 8 C-3.32 7.34 -4.64 6.68 -6 6 C-4 4 -2 2 0 0 Z " fill="#3BBCDD" transform="translate(73,205)"/>
<path d="M0 0 C2.29141286 -0.05384521 4.58318188 -0.09272087 6.875 -0.125 C8.78925781 -0.15980469 8.78925781 -0.15980469 10.7421875 -0.1953125 C14 0 14 0 16 2 C10.31150252 3.49697302 5.58190932 2.3348044 0 1 C0 0.67 0 0.34 0 0 Z " fill="#2A2AAF" transform="translate(412,197)"/>
<path d="M0 0 C1.423125 0.37125 1.423125 0.37125 2.875 0.75 C3.205 1.41 3.535 2.07 3.875 2.75 C3.545 3.41 3.215 4.07 2.875 4.75 C1.555 4.42 0.235 4.09 -1.125 3.75 C-1.125 3.09 -1.125 2.43 -1.125 1.75 C-2.775 1.75 -4.425 1.75 -6.125 1.75 C-3.125 -0.25 -3.125 -0.25 0 0 Z " fill="#18D4E4" transform="translate(96.125,221.25)"/>
<path d="M0 0 C0 0.99 0 1.98 0 3 C0.66 3.33 1.32 3.66 2 4 C1.67 4.99 1.34 5.98 1 7 C-1.475 6.01 -1.475 6.01 -4 5 C-4 4.01 -4 3.02 -4 2 C-2.68 1.34 -1.36 0.68 0 0 Z " fill="#4F8AD6" transform="translate(72,198)"/>
<path d="M0 0 C1.32 0 2.64 0 4 0 C4 0.66 4 1.32 4 2 C8.455 1.505 8.455 1.505 13 1 C11.375 2.5625 11.375 2.5625 9 4 C5.64866084 3.86321065 3.72324494 3.60270411 1.125 1.4375 C0.75375 0.963125 0.3825 0.48875 0 0 Z " fill="#5B61D1" transform="translate(108,243)"/>
<path d="M0 0 C0.66 0.33 1.32 0.66 2 1 C2.37211538 8.56634615 2.37211538 8.56634615 0.48828125 10.76171875 C-0.00285156 11.17035156 -0.49398438 11.57898438 -1 12 C-1.02712066 10.56260487 -1.04645067 9.12506137 -1.0625 7.6875 C-1.07410156 6.88699219 -1.08570313 6.08648437 -1.09765625 5.26171875 C-1 3 -1 3 0 0 Z " fill="#1211D1" transform="translate(357,206)"/>
<path d="M0 0 C-1 3 -1 3 -3 5 C-3.33 5.99 -3.66 6.98 -4 8 C-4.66 8 -5.32 8 -6 8 C-6 5.69 -6 3.38 -6 1 C-3.92446352 0.4465236 -2.15634036 0 0 0 Z " fill="#4380F4" transform="translate(82,196)"/>
<path d="M0 0 C0.66 0.99 1.32 1.98 2 3 C1.67 3.66 1.34 4.32 1 5 C0.67 4.67 0.34 4.34 0 4 C-0.66 5.32 -1.32 6.64 -2 8 C-2.99 5.69 -3.98 3.38 -5 1 C-3.35 0.67 -1.7 0.34 0 0 Z " fill="#1919AE" transform="translate(308,205)"/>
<path d="M0 0 C1.65 0 3.3 0 5 0 C5 0.66 5 1.32 5 2 C4.34 2 3.68 2 3 2 C3 4.97 3 7.94 3 11 C2.67 11 2.34 11 2 11 C2 8.69 2 6.38 2 4 C1.34 4 0.68 4 0 4 C0 2.68 0 1.36 0 0 Z " fill="#1314C4" transform="translate(251,198)"/>
<path d="M0 0 C0.66 0.66 1.32 1.32 2 2 C1.875 4 1.875 4 1 6 C-1.0625 7.25 -1.0625 7.25 -3 8 C-3.33 7.01 -3.66 6.02 -4 5 C-2.0625 2.3125 -2.0625 2.3125 0 0 Z " fill="#6037F8" transform="translate(153,218)"/>
<path d="M0 0 C1.32 0 2.64 0 4 0 C4.33 2.31 4.66 4.62 5 7 C4.01 7 3.02 7 2 7 C2 5.35 2 3.7 2 2 C1.34 2 0.68 2 0 2 C0 1.34 0 0.68 0 0 Z " fill="#1610CE" transform="translate(424,199)"/>
<path d="M0 0 C0 0.99 0 1.98 0 3 C0.66 3 1.32 3 2 3 C2 3.66 2 4.32 2 5 C-0.97 4.01 -3.94 3.02 -7 2 C-7 1.67 -7 1.34 -7 1 C-2.25 0 -2.25 0 0 0 Z " fill="#25D4EC" transform="translate(78,212)"/>
<path d="M0 0 C2.52259061 1.97420135 2.9929808 2.96745642 3.6875 6.1875 C3.790625 7.115625 3.89375 8.04375 4 9 C3.01 9.495 3.01 9.495 2 10 C-0.09350689 6.5980513 -0.17942163 3.94727588 0 0 Z " fill="#1110D4" transform="translate(307,207)"/>
<path d="M0 0 C2 0 2 0 3.6875 1.25 C4.120625 1.8275 4.55375 2.405 5 3 C4.6875 5.1875 4.6875 5.1875 4 7 C3.01 6.67 2.02 6.34 1 6 C0.67 4.02 0.34 2.04 0 0 Z " fill="#2020B4" transform="translate(185,217)"/>
<path d="M0 0 C2.475 0.495 2.475 0.495 5 1 C5 1.99 5 2.98 5 4 C4.01 4.33 3.02 4.66 2 5 C1.34 4.67 0.68 4.34 0 4 C0 2.68 0 1.36 0 0 Z " fill="#5949F1" transform="translate(132,186)"/>
<path d="M0 0 C1.65 0 3.3 0 5 0 C5.33 0.99 5.66 1.98 6 3 C4.02 3.33 2.04 3.66 0 4 C0 2.68 0 1.36 0 0 Z " fill="#4E64F7" transform="translate(103,235)"/>
<path d="M0 0 C0 0.66 0 1.32 0 2 C-0.99 2 -1.98 2 -3 2 C-3.33 2.99 -3.66 3.98 -4 5 C-5.98 5.33 -7.96 5.66 -10 6 C-7.35570758 3.077361 -4.105808 0 0 0 Z " fill="#5789DC" transform="translate(84,192)"/>
<path d="M0 0 C0.66 0.33 1.32 0.66 2 1 C2 1.66 2 2.32 2 3 C-1.47325181 4.1577506 -4.36067448 4.06866652 -8 4 C-6.66666667 3.33333333 -5.33333333 2.66666667 -4 2 C-3.29875 1.608125 -2.5975 1.21625 -1.875 0.8125 C-1.25625 0.544375 -0.6375 0.27625 0 0 Z " fill="#2E30A7" transform="translate(350,221)"/>
<path d="M0 0 C3.37462715 0.54723683 5.08235 1.0549 8 3 C8 3.66 8 4.32 8 5 C2.25 3.375 2.25 3.375 0 0 Z " fill="#3191EB" transform="translate(78,207)"/>
<path d="M0 0 C1.65 0 3.3 0 5 0 C5.33 0.66 5.66 1.32 6 2 C5.34 2 4.68 2 4 2 C4 3.98 4 5.96 4 8 C2.22293791 5.33440687 1.12451727 2.9719385 0 0 Z " fill="#1E1FB4" transform="translate(261,198)"/>
<path d="M0 0 C1.32 0.33 2.64 0.66 4 1 C3.01 1.495 3.01 1.495 2 2 C2 3.32 2 4.64 2 6 C2.66 6 3.32 6 4 6 C3.67 7.32 3.34 8.64 3 10 C3 9.01 3 8.02 3 7 C2.34 7 1.68 7 1 7 C0.67 4.69 0.34 2.38 0 0 Z " fill="#1613BE" transform="translate(353,199)"/>
</svg>
