<?xml version="1.0" encoding="UTF-8"?>
<svg version="1.1" xmlns="http://www.w3.org/2000/svg" width="500" height="500">
<path d="M0 0 C0.94012939 0.52343994 1.88025879 1.04687988 2.84887695 1.58618164 C3.90381348 2.16352051 4.95875 2.74085938 6.0456543 3.33569336 C7.13185059 3.96620605 8.21804688 4.59671875 9.3371582 5.24633789 C10.37050293 5.83946777 11.40384766 6.43259766 12.46850586 7.04370117 C15.71310742 8.93735303 18.93291898 10.86826779 22.1496582 12.80883789 C24.53564603 14.23803686 26.92420837 15.66288438 29.3137207 17.08618164 C29.90845688 17.44059326 30.50319305 17.79500488 31.11595154 18.16015625 C36.70513496 21.48191421 42.35388973 24.69148615 48.0246582 27.87133789 C56.88827809 32.84351866 65.68291007 37.92321596 74.4519043 43.06030273 C82.21187516 47.60238211 90.00771932 52.07851022 97.82788086 56.51611328 C98.6417627 56.97880615 99.45564453 57.44149902 100.29418945 57.91821289 C101.00551025 58.32136719 101.71683105 58.72452148 102.44970703 59.13989258 C104.11503569 60.11612715 105.73098785 61.17555766 107.3371582 62.24633789 C105.93695946 66.44693413 102.96889943 67.43685314 99.2746582 69.43383789 C98.61143555 69.80186523 97.94821289 70.16989258 97.26489258 70.54907227 C95.62688364 71.45645851 93.98259599 72.35249362 92.3371582 73.24633789 C96.43617419 76.65849174 100.69208947 79.26824077 105.32543945 81.87915039 C105.98930664 82.33032227 106.65317383 82.78149414 107.3371582 83.24633789 C107.3371582 83.90633789 107.3371582 84.56633789 107.3371582 85.24633789 C106.33813477 85.81223633 105.33911133 86.37813477 104.30981445 86.96118164 C103.00638074 87.70198209 101.70299795 88.44287214 100.3996582 89.18383789 C99.74030273 89.55702148 99.08094727 89.93020508 98.40161133 90.31469727 C95.17882988 92.01596602 95.17882988 92.01596602 92.3371582 94.24633789 C96.9571582 96.88633789 101.5771582 99.52633789 106.3371582 102.24633789 C106.3371582 103.23633789 106.3371582 104.22633789 106.3371582 105.24633789 C104.27124023 106.81762695 104.27124023 106.81762695 101.3449707 108.51196289 C100.26103027 109.14674561 99.17708984 109.78152832 98.06030273 110.43554688 C96.86104952 111.12270117 95.66166432 111.80962515 94.4621582 112.49633789 C93.22706302 113.21421109 91.99253244 113.93305648 90.75854492 114.65283203 C87.57246109 116.50747926 84.378832 118.34866733 81.18237305 120.18536377 C78.37696404 121.79843683 75.57605054 123.41927069 72.7746582 125.03930664 C69.60401825 126.87106336 66.43236351 128.70097143 63.25805664 130.52636719 C55.66969411 134.89018883 48.10661429 139.29510557 40.55755615 143.72640991 C38.72803148 144.79952734 36.89725983 145.8704873 35.06616211 146.94091797 C29.71220118 150.07341066 24.36695801 153.21708171 19.06118774 156.43070984 C17.38197715 157.44660582 15.69871978 158.45580315 14.01538086 159.46484375 C11.94794864 160.70501722 9.88728565 161.95656999 7.8347168 163.22119141 C6.91770996 163.76831787 6.00070312 164.31544434 5.0559082 164.87915039 C4.26120117 165.36270996 3.46649414 165.84626953 2.64770508 166.34448242 C-0.26389439 167.48094147 -1.70902868 167.17537879 -4.6628418 166.24633789 C-6.61303711 165.37353516 -6.61303711 165.37353516 -8.4909668 164.31274414 C-9.19866211 163.91676025 -9.90635742 163.52077637 -10.63549805 163.11279297 C-11.7627832 162.46733521 -11.7627832 162.46733521 -12.9128418 161.80883789 C-13.71077148 161.35855225 -14.50870117 160.9082666 -15.33081055 160.44433594 C-21.16336566 157.13933655 -26.9504837 153.75785557 -32.71826172 150.34130859 C-39.19140138 146.50865372 -45.70580275 142.74941713 -52.2253418 138.99633789 C-60.82498977 134.04474124 -69.40928487 129.06831765 -77.9753418 124.05883789 C-88.82873486 117.71322374 -99.73330504 111.45975194 -110.6628418 105.24633789 C-108.80663143 101.01017316 -106.59408493 99.74021707 -102.5378418 97.49633789 C-101.44213867 96.88274414 -100.34643555 96.26915039 -99.2175293 95.63696289 C-98.37448242 95.17805664 -97.53143555 94.71915039 -96.6628418 94.24633789 C-99.80160251 91.6372082 -102.8806664 89.42780527 -106.4753418 87.49633789 C-107.26553711 87.06836914 -108.05573242 86.64040039 -108.86987305 86.19946289 C-109.75739258 85.72766602 -109.75739258 85.72766602 -110.6628418 85.24633789 C-109.15969543 80.9637888 -106.46900144 79.68452573 -102.6003418 77.55883789 C-98.91468454 75.70787048 -98.91468454 75.70787048 -95.6628418 73.24633789 C-100.6128418 70.27633789 -105.5628418 67.30633789 -110.6628418 64.24633789 C-109.34881 60.30424251 -107.87427527 59.94576257 -104.28393555 57.94555664 C-102.57898926 56.98528564 -102.57898926 56.98528564 -100.83959961 56.00561523 C-100.23071899 55.66826355 -99.62183838 55.33091187 -98.99450684 54.9833374 C-96.4287891 53.56175087 -93.87437289 52.12038557 -91.31893921 50.68041992 C-90.00837416 49.94235207 -88.69719013 49.20538229 -87.38540649 48.46948242 C-81.35595724 45.08574104 -75.37800651 41.61710903 -69.4128418 38.12133789 C-68.43871338 37.5517334 -67.46458496 36.98212891 -66.4609375 36.39526367 C-64.50353942 35.25056936 -62.54642463 34.10539048 -60.58959961 32.9597168 C-55.65776117 30.07252609 -50.72326762 27.1898912 -45.7878418 24.30883789 C-44.81645264 23.74173096 -43.84506348 23.17462402 -42.84423828 22.59033203 C-33.95585736 17.40671991 -25.04419295 12.26382986 -16.1262207 7.13134766 C-15.09287598 6.53636475 -14.05953125 5.94138184 -12.99487305 5.32836914 C-12.08455322 4.80476807 -11.1742334 4.28116699 -10.23632812 3.74169922 C-7.61589527 2.28201781 -7.61589527 2.28201781 -5.17407227 0.4074707 C-2.6628418 -0.75366211 -2.6628418 -0.75366211 0 0 Z " fill="#515CF6" transform="translate(251.662841796875,166.753662109375)"/>
<path d="M0 0 C0 0.66 0 1.32 0 2 C0.969375 2.20625 1.93875 2.4125 2.9375 2.625 C6.99739357 3.78612956 10.02280975 5.87501849 13.4609375 8.2734375 C16.34922582 10.23747356 19.30598686 12.03492654 22.3125 13.8125 C23.29863281 14.39644531 24.28476563 14.98039062 25.30078125 15.58203125 C27.60255752 16.79121329 29.4628539 17.5359614 32 18 C32 18.66 32 19.32 32 20 C32.721875 20.28875 33.44375 20.5775 34.1875 20.875 C36.79166667 21.91666667 39.39583333 22.95833333 42 24 C42 24.66 42 25.32 42 26 C42.639375 26.226875 43.27875 26.45375 43.9375 26.6875 C47.39862287 28.17083837 50.56794501 29.98162473 53.81640625 31.87890625 C55.93604408 33.07977487 55.93604408 33.07977487 58.19921875 33.5078125 C58.79347656 33.67023438 59.38773437 33.83265625 60 34 C60.4125 34.763125 60.825 35.52625 61.25 36.3125 C63.71048302 40.09109892 66.93848573 41.27313289 71 43 C71 43.66 71 44.32 71 45 C75.51961078 47.25980539 79.04254494 47.31983581 84 47 C84.99 46.34 85.98 45.68 87 45 C87.99 45 88.98 45 90 45 C90 44.34 90 43.68 90 43 C91.72718516 42.03810003 93.45684058 41.08063492 95.1875 40.125 C96.15042969 39.59132813 97.11335938 39.05765625 98.10546875 38.5078125 C101 37 101 37 103.7109375 35.9296875 C106.16854356 35.0634545 106.16854356 35.0634545 108.4375 33 C111 31 111 31 114.0625 30 C117.06661187 29.21852848 117.06661187 29.21852848 118.9375 27.0625 C121.16503229 24.83496771 123.24349003 23.97873154 126.1484375 22.84765625 C128.14101295 21.93544344 129.69900897 20.8296678 131.4375 19.5 C134.39498063 17.27697132 137.24754659 16.19512504 140.76171875 15.0078125 C144.69128484 13.23847908 147.96200066 10.51453334 151.390625 7.93359375 C156.2154993 4.35827522 161.11724924 1.47068769 167 0 C167.99 0.33 168.98 0.66 170 1 C170.99 0.67 171.98 0.34 173 0 C175.6875 0.9375 175.6875 0.9375 178 2 C178.33 1.01 178.66 0.02 179 -1 C182.87302138 0.14430177 186.00263439 1.23320098 189 4 C189 4.66 189 5.32 189 6 C187.50146484 6.84884766 187.50146484 6.84884766 185.97265625 7.71484375 C184.66922254 8.4556442 183.36583975 9.19653425 182.0625 9.9375 C181.0734668 10.49727539 181.0734668 10.49727539 180.06445312 11.06835938 C176.84167167 12.76962813 176.84167167 12.76962813 174 15 C178.62 17.64 183.24 20.28 188 23 C188 23.99 188 24.98 188 26 C185.93408203 27.57128906 185.93408203 27.57128906 183.0078125 29.265625 C181.92387207 29.90040771 180.83993164 30.53519043 179.72314453 31.18920898 C178.52389132 31.87636328 177.32450611 32.56328726 176.125 33.25 C174.88990482 33.9678732 173.65537424 34.68671859 172.42138672 35.40649414 C169.23530288 37.26114137 166.0416738 39.10232944 162.84521484 40.93902588 C160.03980584 42.55209894 157.23889234 44.1729328 154.4375 45.79296875 C151.26686004 47.62472547 148.0952053 49.45463354 144.92089844 51.2800293 C137.33253591 55.64385094 129.76945609 60.04876768 122.22039795 64.48007202 C120.39087328 65.55318945 118.56010163 66.62414941 116.72900391 67.69458008 C111.37504297 70.82707277 106.02979981 73.97074382 100.72402954 77.18437195 C99.04481895 78.20026793 97.36156158 79.20946526 95.67822266 80.21850586 C93.61079044 81.45867933 91.55012745 82.7102321 89.49755859 83.97485352 C88.58055176 84.52197998 87.66354492 85.06910645 86.71875 85.6328125 C85.92404297 86.11637207 85.12933594 86.59993164 84.31054688 87.09814453 C81.39894741 88.23460358 79.95381312 87.9290409 77 87 C75.04980469 86.12719727 75.04980469 86.12719727 73.171875 85.06640625 C72.46417969 84.67042236 71.75648438 84.27443848 71.02734375 83.86645508 C70.27582031 83.4361499 69.52429688 83.00584473 68.75 82.5625 C67.95207031 82.11221436 67.15414062 81.66192871 66.33203125 81.19799805 C60.49947614 77.89299866 54.7123581 74.51151768 48.94458008 71.0949707 C42.47144042 67.26231583 35.95703904 63.50307923 29.4375 59.75 C20.83785203 54.79840335 12.25355693 49.82197976 3.6875 44.8125 C-7.16589307 38.46688585 -18.07046324 32.21341405 -29 26 C-27.14378964 21.76383527 -24.93124313 20.49387918 -20.875 18.25 C-19.77929688 17.63640625 -18.68359375 17.0228125 -17.5546875 16.390625 C-16.71164063 15.93171875 -15.86859375 15.4728125 -15 15 C-18.13876072 12.39087031 -21.21782461 10.18146738 -24.8125 8.25 C-25.60269531 7.82203125 -26.39289063 7.3940625 -27.20703125 6.953125 C-27.79871094 6.63859375 -28.39039063 6.3240625 -29 6 C-27.57247607 2.40049073 -26.02291657 1.10176836 -22.625 -0.6875 C-21.85414063 -1.10386719 -21.08328125 -1.52023438 -20.2890625 -1.94921875 C-12.63734168 -5.4616981 -7.04981552 -4.00801694 0 0 Z M174 2 C175 4 175 4 175 4 Z " fill="#5851F6" transform="translate(170,246)"/>
<path d="M0 0 C0 0.66 0 1.32 0 2 C0.969375 2.20625 1.93875 2.4125 2.9375 2.625 C6.99739357 3.78612956 10.02280975 5.87501849 13.4609375 8.2734375 C16.34922582 10.23747356 19.30598686 12.03492654 22.3125 13.8125 C23.29863281 14.39644531 24.28476563 14.98039062 25.30078125 15.58203125 C27.60255752 16.79121329 29.4628539 17.5359614 32 18 C32 18.66 32 19.32 32 20 C32.721875 20.28875 33.44375 20.5775 34.1875 20.875 C36.79166667 21.91666667 39.39583333 22.95833333 42 24 C42 24.66 42 25.32 42 26 C42.639375 26.226875 43.27875 26.45375 43.9375 26.6875 C47.39862287 28.17083837 50.56794501 29.98162473 53.81640625 31.87890625 C55.93604408 33.07977487 55.93604408 33.07977487 58.19921875 33.5078125 C58.79347656 33.67023438 59.38773437 33.83265625 60 34 C60.4125 34.763125 60.825 35.52625 61.25 36.3125 C63.71048302 40.09109892 66.93848573 41.27313289 71 43 C71 43.66 71 44.32 71 45 C75.51961078 47.25980539 79.04254494 47.31983581 84 47 C84.99 46.34 85.98 45.68 87 45 C87.99 45 88.98 45 90 45 C90 44.34 90 43.68 90 43 C91.72718516 42.03810003 93.45684058 41.08063492 95.1875 40.125 C96.15042969 39.59132813 97.11335938 39.05765625 98.10546875 38.5078125 C101 37 101 37 103.7109375 35.9296875 C106.16854356 35.0634545 106.16854356 35.0634545 108.4375 33 C111 31 111 31 114.0625 30 C117.06661187 29.21852848 117.06661187 29.21852848 118.9375 27.0625 C121.16503229 24.83496771 123.24349003 23.97873154 126.1484375 22.84765625 C128.14101295 21.93544344 129.69900897 20.8296678 131.4375 19.5 C134.39498063 17.27697132 137.24754659 16.19512504 140.76171875 15.0078125 C144.69128484 13.23847908 147.96200066 10.51453334 151.390625 7.93359375 C156.2154993 4.35827522 161.11724924 1.47068769 167 0 C167.99 0.33 168.98 0.66 170 1 C170.99 0.67 171.98 0.34 173 0 C176.00617269 3.00617269 175.59585316 5.82381598 176 10 C173.525 11.485 173.525 11.485 171 13 C171 12.01 171 11.02 171 10 C170.34 10 169.68 10 169 10 C168.92136719 10.75925781 168.84273437 11.51851563 168.76171875 12.30078125 C167.58672047 16.46449311 164.89386531 17.51315576 161.36328125 19.71484375 C158.66396605 21.18273582 155.93793476 22.11861957 153 23 C152.67 23.66 152.34 24.32 152 25 C149 27 149 27 145 27 C145 27.66 145 28.32 145 29 C142.953125 30.47265625 142.953125 30.47265625 140.25 32.0625 C139.36828125 32.58972656 138.4865625 33.11695313 137.578125 33.66015625 C134.6412264 35.18645355 132.11733079 35.83568665 128.875 36.3125 C127.946875 36.6528125 127.946875 36.6528125 127 37 C126.72285156 37.62519531 126.44570313 38.25039063 126.16015625 38.89453125 C124.67398703 41.59165317 123.34676477 42.11873973 120.5625 43.375 C115.66144694 45.66501169 110.96123114 48.20652165 106.25 50.86328125 C104 52 104 52 102 52 C101.67 52.99 101.34 53.98 101 55 C98.77734375 56.359375 98.77734375 56.359375 95.9375 57.75 C91.14980381 60.21846154 87.52037991 62.94579063 83.75390625 66.77734375 C82 68 82 68 80.13671875 67.86328125 C73.1134682 65.02573395 66.42766331 61.4216591 60.0703125 57.31640625 C56.71806746 55.1848844 53.26672306 53.22649628 49.828125 51.23828125 C46.71724906 49.43049371 43.63124205 47.58309182 40.546875 45.73046875 C39.57379395 45.14845703 38.60071289 44.56644531 37.59814453 43.96679688 C35.64325712 42.79688232 33.69102027 41.6225253 31.74169922 40.44335938 C27.97672527 38.19620911 24.57146218 36.19028079 20.3984375 34.80078125 C19.60695312 34.53652344 18.81546875 34.27226562 18 34 C17.67 33.01 17.34 32.02 17 31 C14.73774618 29.92745649 14.73774618 29.92745649 12 29 C9.99248185 28.01517978 7.99065541 27.01847486 6 26 C6 25.34 6 24.68 6 24 C5.319375 23.9175 4.63875 23.835 3.9375 23.75 C0.1253093 22.77667472 -2.64070329 21.04192545 -6 19 C-6 18.34 -6 17.68 -6 17 C-8.97 16.67 -11.94 16.34 -15 16 C-15 15.34 -15 14.68 -15 14 C-21.93 10.04 -21.93 10.04 -29 6 C-26.94623277 1.89246554 -26.42904964 1.31562913 -22.625 -0.6875 C-21.85414063 -1.10386719 -21.08328125 -1.52023438 -20.2890625 -1.94921875 C-12.63734168 -5.4616981 -7.04981552 -4.00801694 0 0 Z M179 -1 C180.32 -0.34 181.64 0.32 183 1 C182.34 1 181.68 1 181 1 C180.67 2.32 180.34 3.64 180 5 C178.35 4.67 176.7 4.34 175 4 C176 2 176 2 179 1 C179 0.34 179 -0.32 179 -1 Z " fill="#26B8EC" transform="translate(170,246)"/>
<path d="M0 0 C0 0.66 0 1.32 0 2 C0.680625 2.268125 1.36125 2.53625 2.0625 2.8125 C5.39710809 4.16053306 8.69743237 5.57536298 12 7 C12 7.66 12 8.32 12 9 C12.886875 9.268125 13.77375 9.53625 14.6875 9.8125 C19.33163867 11.4773799 22.23709652 12.85564477 25 17 C25.81726563 17.27199219 26.63453125 17.54398437 27.4765625 17.82421875 C32.49220598 19.49795344 36.81824523 22.15867169 41.375 24.8125 C42.2825 25.33392578 43.19 25.85535156 44.125 26.39257812 C49.48817733 29.48761058 54.7692108 32.68635017 60 36 C57 37 57 37 54.30078125 35.78515625 C53.31464844 35.21667969 52.32851562 34.64820313 51.3125 34.0625 C50.31863281 33.49660156 49.32476562 32.93070312 48.30078125 32.34765625 C47.54152344 31.90292969 46.78226562 31.45820313 46 31 C45.86722656 31.75667969 45.73445313 32.51335937 45.59765625 33.29296875 C44.88676181 36.51290239 43.54976596 39.10261147 42 42 C43.485 42.99 43.485 42.99 45 44 C43.29541016 45.14624023 43.29541016 45.14624023 41 46 C38.75537109 45.17993164 38.75537109 45.17993164 36.2734375 43.66015625 C35.33677246 43.09893066 34.40010742 42.53770508 33.43505859 41.95947266 C31.92032959 41.02047119 31.92032959 41.02047119 30.375 40.0625 C28.20894818 38.75809305 26.04225872 37.45474447 23.875 36.15234375 C22.74835938 35.46897949 21.62171875 34.78561523 20.4609375 34.08154297 C14.81825821 30.67262348 9.09221218 27.4067331 3.375 24.125 C1.20825743 22.8764338 -0.95841184 21.62774038 -3.125 20.37890625 C-9.74159947 16.5711805 -16.36514583 12.77583519 -23 9 C-21.5304003 5.19390191 -19.61508531 3.8268074 -16.125 1.8125 C-15.26132813 1.30332031 -14.39765625 0.79414063 -13.5078125 0.26953125 C-8.26747564 -2.38328725 -5.62239066 -1.83808925 0 0 Z " fill="#427CF2" transform="translate(164,263)"/>
<path d="M0 0 C1.32 0.66 2.64 1.32 4 2 C3.67 2.66 3.34 3.32 3 4 C3.804375 4.4125 4.60875 4.825 5.4375 5.25 C8 7 8 7 8.8125 9.1875 C8.874375 9.785625 8.93625 10.38375 9 11 C7.25 11.625 7.25 11.625 5 12 C3.65863633 11.34964186 2.32467746 10.6837045 1 10 C0.01 10.33 -0.98 10.66 -2 11 C-2.99 10.67 -3.98 10.34 -5 10 C-11.45021894 12.10619394 -16.5536321 16.042306 -22 20 C-25.39345689 22.42389778 -28.61528213 24.31595302 -32.4375 25.9375 C-36.14002554 27.51277887 -39.1155704 29.41729471 -42.30859375 31.83984375 C-44.05296508 33.0363294 -45.73039134 33.83135297 -47.6875 34.625 C-50.60742764 35.83704544 -52.58654065 37.01751553 -55 39 C-58 41 -58 41 -60.5 41.9375 C-62.99218362 42.80251227 -62.99218362 42.80251227 -64.375 44.4375 C-66.85434796 46.82148842 -69.83580678 47.71287055 -73 49 C-74.093125 49.556875 -75.18625 50.11375 -76.3125 50.6875 C-79 52 -79 52 -81 52 C-81 52.66 -81 53.32 -81 54 C-86.03347777 57.02008666 -89.27680919 57.54506579 -95 57 C-98 55.625 -98 55.625 -100 54 C-100 53.34 -100 52.68 -100 52 C-100.928125 51.731875 -101.85625 51.46375 -102.8125 51.1875 C-105.76240366 50.08851629 -107.05615186 49.37581439 -109 47 C-106.1638754 47.89561829 -103.39701523 48.81795072 -100.69140625 50.05859375 C-95.00511217 52.62230512 -90.10798141 54.08595684 -84 52 C-82.96979453 51.03114672 -81.96767968 50.03130793 -81 49 C-79.43533996 48.31971303 -77.86741751 47.64609199 -76.28515625 47.0078125 C-68.1522575 43.42099561 -60.46559837 38.80219571 -53 34 C-50.77595501 32.57433013 -48.54753502 31.15813449 -46.3125 29.75 C-45.23613281 29.06421875 -44.15976562 28.3784375 -43.05078125 27.671875 C-40.24221241 26.13273612 -38.14890054 25.39726389 -35 25 C-35 24.34 -35 23.68 -35 23 C-34.41992188 22.68546875 -33.83984375 22.3709375 -33.2421875 22.046875 C-29.68680517 20.09904178 -26.23031483 18.15661408 -22.875 15.875 C-20.28323965 14.18472151 -17.7879244 13.06761515 -14.9296875 11.91796875 C-11.77193084 10.41579706 -8.97487151 8.3998659 -6.11328125 6.40234375 C-4.1307901 5.08679047 -2.14935731 4.01403088 0 3 C0 2.01 0 1.02 0 0 Z " fill="#3E8CF7" transform="translate(341,237)"/>
<path d="M0 0 C0.66 0.33 1.32 0.66 2 1 C1.375 3.375 1.375 3.375 0 6 C-1.3921875 6.433125 -1.3921875 6.433125 -2.8125 6.875 C-7.10918819 8.39147819 -8.89204925 11.04526054 -11 15 C-11 15.66 -11 16.32 -11 17 C-9.6078125 17.0928125 -9.6078125 17.0928125 -8.1875 17.1875 C-7.135625 17.455625 -6.08375 17.72375 -5 18 C-4.319375 19.2375 -4.319375 19.2375 -3.625 20.5 C-2.31019908 23.14990983 -2.31019908 23.14990983 -0.1484375 23.4453125 C1.28254701 23.56499484 2.71503462 23.66790208 4.1484375 23.75390625 C6.59926432 24.07964905 7.333393 25.25763814 9 27 C12.12549017 27.25048636 12.12549017 27.25048636 15 27 C15.103125 27.639375 15.20625 28.27875 15.3125 28.9375 C15.539375 29.618125 15.76625 30.29875 16 31 C16.99 31.33 17.98 31.66 19 32 C19 32.66 19 33.32 19 34 C21.97 34.495 21.97 34.495 25 35 C25 35.99 25 36.98 25 38 C25.73605469 37.94070312 26.47210938 37.88140625 27.23046875 37.8203125 C30.51301002 38.03328415 31.75540281 38.8620685 34.3125 40.875 C35.00988281 41.40867187 35.70726562 41.94234375 36.42578125 42.4921875 C36.94527344 42.98976563 37.46476562 43.48734375 38 44 C38 44.66 38 45.32 38 46 C38.7425 46.103125 39.485 46.20625 40.25 46.3125 C43.23008479 47.0575212 44.60879792 48.13187337 47 50 C48.65697379 50.69040574 50.3255761 51.3530635 52 52 C54.68602285 53.29549333 57.34473884 54.6427201 60 56 C60 56.66 60 57.32 60 58 C62.31 58.66 64.62 59.32 67 60 C67 60.99 67 61.98 67 63 C63.20950293 61.57250019 59.72877544 59.83763458 56.1875 57.875 C55.21167969 57.33617187 54.23585938 56.79734375 53.23046875 56.2421875 C52.49441406 55.83226562 51.75835937 55.42234375 51 55 C51 54.34 51 53.68 51 53 C50.278125 52.896875 49.55625 52.79375 48.8125 52.6875 C45.72206579 51.93206053 43.58256159 50.84468685 41 49 C41 48.34 41 47.68 41 47 C40.26265625 46.87995605 39.5253125 46.75991211 38.765625 46.63623047 C36.05553655 46.01277615 34.15589893 45.18421215 31.75 43.8203125 C30.9765625 43.38589844 30.203125 42.95148438 29.40625 42.50390625 C28.6121875 42.04886719 27.818125 41.59382813 27 41.125 C26.2059375 40.67769531 25.411875 40.23039062 24.59375 39.76953125 C20.69525162 37.56687966 16.83587387 35.31016044 13 33 C11.67391178 32.31903578 10.34313399 31.64669414 9 31 C9 30.34 9 29.68 9 29 C8.4225 28.87625 7.845 28.7525 7.25 28.625 C5 28 5 28 3.25 26.9375 C-0.18266365 25.50722348 -3.30017984 25.87667266 -7 26 C-6.34 25.01 -5.68 24.02 -5 23 C-9.95 20.03 -14.9 17.06 -20 14 C-18.80118715 10.40356145 -18.00400547 10.11540299 -14.81640625 8.265625 C-13.97142578 7.77449219 -13.12644531 7.28335938 -12.25585938 6.77734375 C-11.36705078 6.27332031 -10.47824219 5.76929688 -9.5625 5.25 C-8.67755859 4.73050781 -7.79261719 4.21101562 -6.88085938 3.67578125 C-1.96514662 0.8528967 -1.96514662 0.8528967 0 0 Z " fill="#3586EA" transform="translate(161,217)"/>
<path d="M0 0 C0 0.66 0 1.32 0 2 C0.969375 2.20625 1.93875 2.4125 2.9375 2.625 C7.11017641 3.8051509 10.27241155 6.00265547 13.78125 8.49609375 C15.80801588 9.86986992 17.79352791 10.89304293 20 11.9375 C23 14 23 14 23.9375 17.75 C23.958125 18.8225 23.97875 19.895 24 21 C23.01 21.495 23.01 21.495 22 22 C21.94585937 21.26265625 21.89171875 20.5253125 21.8359375 19.765625 C20.69432851 15.98871303 18.84068472 14.96131075 15.625 12.75 C14.64789063 12.06421875 13.67078125 11.3784375 12.6640625 10.671875 C10.05088384 8.88561031 10.05088384 8.88561031 7 8 C6.67 8.66 6.34 9.32 6 10 C5.731875 9.360625 5.46375 8.72125 5.1875 8.0625 C4.11332248 5.66868314 4.11332248 5.66868314 1 5 C1 4.34 1 3.68 1 3 C-4.27304831 1.10170261 -6.81182665 1.0400234 -12 3 C-14.375 2.625 -14.375 2.625 -16 2 C-16.66 3.98 -17.32 5.96 -18 8 C-17.195625 8.598125 -16.39125 9.19625 -15.5625 9.8125 C-13 12 -13 12 -12 15 C-16.00152137 15 -16.88859704 13.50265021 -20 11 C-22.95446264 9.24718435 -25.96694306 7.612344 -29 6 C-27.57247607 2.40049073 -26.02291657 1.10176836 -22.625 -0.6875 C-21.85414063 -1.10386719 -21.08328125 -1.52023438 -20.2890625 -1.94921875 C-12.63734168 -5.4616981 -7.04981552 -4.00801694 0 0 Z " fill="#24CFF3" transform="translate(170,246)"/>
<path d="M0 0 C-13.26704838 8.31274665 -26.77125606 16.24345638 -40.5625 23.65625 C-44.10205097 25.60754092 -47.55322909 27.69724846 -51.00390625 29.80078125 C-53 31 -53 31 -55 32 C-55.33 32.99 -55.66 33.98 -56 35 C-58.3984375 36.53515625 -58.3984375 36.53515625 -61.375 38.0625 C-64.37011248 39.61537494 -67.18985066 41.12656711 -70 43 C-73.1875 43.125 -73.1875 43.125 -76 43 C-76.33 42.01 -76.66 41.02 -77 40 C-79.24408126 38.51792154 -79.24408126 38.51792154 -82 37.1875 C-87.25446457 34.44693612 -92.14007082 31.38395069 -97 28 C-96.34 27.67 -95.68 27.34 -95 27 C-93.1875 27.78515625 -93.1875 27.78515625 -91 29.0625 C-90.20207031 29.52398437 -89.40414062 29.98546875 -88.58203125 30.4609375 C-85.13361779 32.51642147 -81.68850198 34.57658253 -78.26171875 36.66796875 C-74.35174531 39.25553835 -74.35174531 39.25553835 -69.9375 39.6875 C-68.9784375 39.3471875 -68.9784375 39.3471875 -68 39 C-66.515 38.505 -66.515 38.505 -65 38 C-64.70996094 37.38511719 -64.41992188 36.77023437 -64.12109375 36.13671875 C-62.62286085 33.28120168 -60.84105054 32.3996603 -58.0625 30.8125 C-57.18722656 30.30332031 -56.31195313 29.79414063 -55.41015625 29.26953125 C-53 28 -53 28 -50 27 C-49.54753906 26.54367187 -49.09507812 26.08734375 -48.62890625 25.6171875 C-46.59576132 23.59866951 -44.46510831 22.4706332 -41.9375 21.125 C-40.968125 20.60421875 -39.99875 20.0834375 -39 19.546875 C-35.3810537 17.68085582 -31.70734023 15.94795191 -27.99609375 14.2734375 C-25.64406496 12.77292598 -25.15887899 11.47899331 -24 9 C-21.1875 7.875 -21.1875 7.875 -18 7 C-15.21717863 5.98189462 -12.85426256 4.91187969 -10.3125 3.375 C-8 2 -8 2 -6 2 C-6 1.34 -6 0.68 -6 0 C-2.25 -1.125 -2.25 -1.125 0 0 Z " fill="#4095F8" transform="translate(321,273)"/>
<path d="M0 0 C-0.53109375 0.25394531 -1.0621875 0.50789063 -1.609375 0.76953125 C-5.3428717 2.58858895 -8.76457216 4.36372546 -12 7 C-15 9 -15 9 -17.5 9.9375 C-19.99218362 10.80251227 -19.99218362 10.80251227 -21.375 12.4375 C-23.85434796 14.82148842 -26.83580678 15.71287055 -30 17 C-31.093125 17.556875 -32.18625 18.11375 -33.3125 18.6875 C-36 20 -36 20 -38 20 C-38 20.66 -38 21.32 -38 22 C-43.03347777 25.02008666 -46.27680919 25.54506579 -52 25 C-55 23.625 -55 23.625 -57 22 C-57 21.34 -57 20.68 -57 20 C-57.928125 19.731875 -58.85625 19.46375 -59.8125 19.1875 C-62.76240366 18.08851629 -64.05615186 17.37581439 -66 15 C-63.1638754 15.89561829 -60.39701523 16.81795072 -57.69140625 18.05859375 C-52.00511217 20.62230512 -47.10798141 22.08595684 -41 20 C-39.96979453 19.03114672 -38.96767968 18.03130793 -38 17 C-36.43533996 16.31971303 -34.86741751 15.64609199 -33.28515625 15.0078125 C-26.47223365 12.00313894 -19.88426116 8.27642531 -13.625 4.25 C-4.57831762 -1.52610587 -4.57831762 -1.52610587 0 0 Z " fill="#3B9CF6" transform="translate(298,269)"/>
<path d="M0 0 C3.37462715 0.54723683 5.08235 1.0549 8 3 C8 3.66 8 4.32 8 5 C3.94648957 7.26629468 -0.11036351 9.52644162 -4.17041016 11.78100586 C-5.55057411 12.54853775 -6.92981639 13.31772945 -8.30810547 14.08862305 C-10.29153217 15.19759738 -12.27821723 16.30052355 -14.265625 17.40234375 C-14.87931946 17.74716293 -15.49301392 18.09198212 -16.12530518 18.44725037 C-19.03725037 20.05429825 -21.70471142 21.42582093 -25 22 C-25 22.66 -25 23.32 -25 24 C-26.65 24.33 -28.3 24.66 -30 25 C-30.33 24.34 -30.66 23.68 -31 23 C-30.28199219 22.72929687 -29.56398438 22.45859375 -28.82421875 22.1796875 C-26.00768511 21.0032101 -23.44719814 19.66356805 -20.8125 18.125 C-19.95269531 17.63257813 -19.09289062 17.14015625 -18.20703125 16.6328125 C-15.87754071 14.9094018 -15.03414968 13.66914611 -14 11 C-13.34 11 -12.68 11 -12 11 C-12 10.34 -12 9.68 -12 9 C-11.34 9 -10.68 9 -10 9 C-9.67 9.66 -9.34 10.32 -9 11 C-8.01 10.34 -7.02 9.68 -6 9 C-5.7497843 5.91634129 -5.7497843 5.91634129 -6 3 C-4.35 3 -2.7 3 -1 3 C-0.67 2.01 -0.34 1.02 0 0 Z " fill="#5B8FEB" transform="translate(351,247)"/>
<path d="M0 0 C0.66 0.33 1.32 0.66 2 1 C1.375 3.375 1.375 3.375 0 6 C-1.3921875 6.433125 -1.3921875 6.433125 -2.8125 6.875 C-7.10918819 8.39147819 -8.89204925 11.04526054 -11 15 C-11 15.66 -11 16.32 -11 17 C-9.6078125 17.0928125 -9.6078125 17.0928125 -8.1875 17.1875 C-5 18 -5 18 -3.25 20.4375 C-2.8375 21.283125 -2.425 22.12875 -2 23 C-1.34 23.66 -0.68 24.32 0 25 C-2.31 25.33 -4.62 25.66 -7 26 C-6.34 25.01 -5.68 24.02 -5 23 C-9.95 20.03 -14.9 17.06 -20 14 C-18.80118715 10.40356145 -18.00400547 10.11540299 -14.81640625 8.265625 C-13.97142578 7.77449219 -13.12644531 7.28335938 -12.25585938 6.77734375 C-11.36705078 6.27332031 -10.47824219 5.76929688 -9.5625 5.25 C-8.67755859 4.73050781 -7.79261719 4.21101562 -6.88085938 3.67578125 C-1.96514662 0.8528967 -1.96514662 0.8528967 0 0 Z " fill="#5898E8" transform="translate(161,217)"/>
<path d="M0 0 C0 0.66 0 1.32 0 2 C0.680625 2.268125 1.36125 2.53625 2.0625 2.8125 C5.39710809 4.16053306 8.69743237 5.57536298 12 7 C12 7.66 12 8.32 12 9 C12.928125 9.268125 13.85625 9.53625 14.8125 9.8125 C18 11 18 11 21 14 C17.37 13.01 13.74 12.02 10 11 C10 10.01 10 9.02 10 8 C8.68 8 7.36 8 6 8 C6 7.34 6 6.68 6 6 C5.113125 5.731875 4.22625 5.46375 3.3125 5.1875 C0 4 0 4 -2.5625 2.25 C-4.96588515 0.66694768 -4.96588515 0.66694768 -7.625 1.75 C-8.800625 2.36875 -8.800625 2.36875 -10 3 C-10.99 3.33 -11.98 3.66 -13 4 C-13.33 4.99 -13.66 5.98 -14 7 C-16.0625 7.6875 -16.0625 7.6875 -18 8 C-17.01 8.61875 -16.02 9.2375 -15 9.875 C-14.01 10.57625 -13.02 11.2775 -12 12 C-12 12.66 -12 13.32 -12 14 C-15.7910119 12.55049545 -19.3874638 10.84827434 -23 9 C-21.5304003 5.19390191 -19.61508531 3.8268074 -16.125 1.8125 C-15.26132813 1.30332031 -14.39765625 0.79414063 -13.5078125 0.26953125 C-8.26747564 -2.38328725 -5.62239066 -1.83808925 0 0 Z " fill="#338FE7" transform="translate(164,263)"/>
<path d="M0 0 C-0.49230769 5.53846154 -0.49230769 5.53846154 -3.0625 7.875 C-3.701875 8.24625 -4.34125 8.6175 -5 9 C-5.33 8.34 -5.66 7.68 -6 7 C-10.45040344 10.05419844 -14.29909479 13.0747975 -18 17 C-18.99 16.67 -19.98 16.34 -21 16 C-21.66 16.33 -22.32 16.66 -23 17 C-25.125 16.5625 -25.125 16.5625 -27 16 C-27 16.66 -27 17.32 -27 18 C-28.32 17.67 -29.64 17.34 -31 17 C-30.22809326 16.5560791 -29.45618652 16.1121582 -28.66088867 15.65478516 C-25.79225346 14.00439667 -22.92414857 12.35309407 -20.05639648 10.70117188 C-18.81604751 9.98693827 -17.57548941 9.2730677 -16.3347168 8.55957031 C-14.5494134 7.53285999 -12.7648707 6.50483853 -10.98046875 5.4765625 C-9.37014771 4.549646 -9.37014771 4.549646 -7.72729492 3.60400391 C-1.59939117 0 -1.59939117 0 0 0 Z " fill="#6A93EB" transform="translate(194,199)"/>
<path d="M0 0 C-1.19899698 3.0831351 -2.47700477 6.06279492 -4 9 C-4.66 9 -5.32 9 -6 9 C-6 8.34 -6 7.68 -6 7 C-6.70125 7.639375 -7.4025 8.27875 -8.125 8.9375 C-11 11 -11 11 -14.0625 11.5 C-17.12631432 11.72381963 -17.12631432 11.72381963 -19 14.0625 C-21 16 -21 16 -24.25 16.25 C-25.1575 16.1675 -26.065 16.085 -27 16 C-27.33 16.99 -27.66 17.98 -28 19 C-28.99 18.34 -29.98 17.68 -31 17 C-30.29915283 16.59160889 -29.59830566 16.18321777 -28.8762207 15.76245117 C-25.68812172 13.90446349 -22.50030814 12.04598665 -19.3125 10.1875 C-18.20970703 9.54490234 -17.10691406 8.90230469 -15.97070312 8.24023438 C-14.90400391 7.61826172 -13.83730469 6.99628906 -12.73828125 6.35546875 C-11.75899658 5.78465576 -10.77971191 5.21384277 -9.77075195 4.62573242 C-7.92038083 3.54003136 -6.08527304 2.42789739 -4.26635742 1.2902832 C-2 0 -2 0 0 0 Z " fill="#6981EA" transform="translate(225,181)"/>
<path d="M0 0 C0 0.66 0 1.32 0 2 C-0.66 2 -1.32 2 -2 2 C-2 2.99 -2 3.98 -2 5 C-2.66 5.66 -3.32 6.32 -4 7 C-4 7.99 -4 8.98 -4 10 C-3.34 10.33 -2.68 10.66 -2 11 C2.84946237 14.5483871 2.84946237 14.5483871 4 18 C-0.00152137 18 -0.88859704 16.50265021 -4 14 C-6.95446264 12.24718435 -9.96694306 10.612344 -13 9 C-11.56356879 5.34646845 -9.94164969 4.06021834 -6.5 2.25 C-5.7059375 1.82203125 -4.911875 1.3940625 -4.09375 0.953125 C-2 0 -2 0 0 0 Z " fill="#28DAE2" transform="translate(154,243)"/>
<path d="M0 0 C4.28932225 1.27044442 7.66687131 2.88479041 11.375 5.375 C18.61641384 10.74410351 18.61641384 10.74410351 26.90234375 12.78515625 C29.53745629 11.79882921 31.74685221 10.43892764 34.125 8.9375 C38.78352941 6 38.78352941 6 41 6 C41 6.66 41 7.32 41 8 C40.24074219 8.40992188 39.48148437 8.81984375 38.69921875 9.2421875 C37.20841797 10.05042969 37.20841797 10.05042969 35.6875 10.875 C34.70136719 11.40867187 33.71523438 11.94234375 32.69921875 12.4921875 C29.90413542 14.00722126 29.90413542 14.00722126 27 16 C23.8125 16.125 23.8125 16.125 21 16 C20.67 15.01 20.34 14.02 20 13 C17.75591874 11.51792154 17.75591874 11.51792154 15 10.1875 C9.7775226 7.45679286 4.70527218 4.56671249 0 1 C0 0.67 0 0.34 0 0 Z " fill="#406EEA" transform="translate(224,300)"/>
<path d="M0 0 C-5.3474381 4.44636223 -11.18610311 7.77010929 -17.1875 11.25 C-18.29287109 11.8996875 -19.39824219 12.549375 -20.53710938 13.21875 C-22.11782227 14.13914062 -22.11782227 14.13914062 -23.73046875 15.078125 C-24.69364014 15.63918945 -25.65681152 16.20025391 -26.64916992 16.77832031 C-29 18 -29 18 -31 18 C-30.505 16.515 -30.505 16.515 -30 15 C-29.34 15 -28.68 15 -28 15 C-28.33 13.68 -28.66 12.36 -29 11 C-26.03 11.495 -26.03 11.495 -23 12 C-23 11.34 -23 10.68 -23 10 C-20.35261084 8.5393715 -19.10551666 8 -16 8 C-15.67 6.68 -15.34 5.36 -15 4 C-15 4.66 -15 5.32 -15 6 C-14.34 6 -13.68 6 -13 6 C-13 5.34 -13 4.68 -13 4 C-11.35 4 -9.7 4 -8 4 C-8 3.01 -8 2.02 -8 1 C-5.29120665 -0.35439668 -2.99066732 -0.06501451 0 0 Z " fill="#8061E8" transform="translate(355,273)"/>
<path d="M0 0 C2.46728516 1.58911133 2.46728516 1.58911133 4.2109375 2.91796875 C3.2209375 3.57796875 2.2309375 4.23796875 1.2109375 4.91796875 C0.2209375 4.25796875 -0.7690625 3.59796875 -1.7890625 2.91796875 C-1.7890625 2.25796875 -1.7890625 1.59796875 -1.7890625 0.91796875 C-4.14077381 1.51658617 -6.4750003 2.18721227 -8.7890625 2.91796875 C-9.1190625 3.57796875 -9.4490625 4.23796875 -9.7890625 4.91796875 C-12.8515625 5.54296875 -12.8515625 5.54296875 -15.7890625 5.91796875 C-15.86511719 6.54058594 -15.94117188 7.16320312 -16.01953125 7.8046875 C-16.7890625 9.91796875 -16.7890625 9.91796875 -18.71484375 11 C-19.50246094 11.24105469 -20.29007813 11.48210937 -21.1015625 11.73046875 C-21.88144531 11.98441406 -22.66132813 12.23835937 -23.46484375 12.5 C-25.970721 12.95063675 -27.37637018 12.60236416 -29.7890625 11.91796875 C-26.03750365 9.41409218 -22.23395815 7.00353923 -18.4140625 4.60546875 C-16.82271484 3.54102539 -16.82271484 3.54102539 -15.19921875 2.45507812 C-6.19419643 -3.09709821 -6.19419643 -3.09709821 0 0 Z " fill="#868DE6" transform="translate(254.7890625,168.08203125)"/>
<path d="M0 0 C1.9375 0.375 1.9375 0.375 4 1 C4.33 1.66 4.66 2.32 5 3 C1.37130542 5.10110416 -2.25827529 7.20066679 -5.88867188 9.29882812 C-7.1226385 10.01227577 -8.35636534 10.72613831 -9.58984375 11.44042969 C-11.36655254 12.46920139 -13.14412859 13.49646013 -14.921875 14.5234375 C-15.99018555 15.14138184 -17.05849609 15.75932617 -18.15917969 16.39599609 C-20.41432111 17.66930987 -22.6691524 18.8739154 -25 20 C-25 19.01 -25 18.02 -25 17 C-24.34 17 -23.68 17 -23 17 C-23 16.34 -23 15.68 -23 15 C-22.34 15 -21.68 15 -21 15 C-21 14.34 -21 13.68 -21 13 C-19.02 13 -17.04 13 -15 13 C-14.67 11.68 -14.34 10.36 -14 9 C-12.35 9 -10.7 9 -9 9 C-9 8.34 -9 7.68 -9 7 C-6 5 -6 5 -2 5 C-2 4.34 -2 3.68 -2 3 C-1.34 3 -0.68 3 0 3 C0 2.01 0 1.02 0 0 Z " fill="#817AE5" transform="translate(297,302)"/>
<path d="M0 0 C2.475 0.495 2.475 0.495 5 1 C1.95124073 4.32859708 -1.21910958 6.50435293 -5.125 8.75 C-6.17945313 9.36359375 -7.23390625 9.9771875 -8.3203125 10.609375 C-11 12 -11 12 -13 12 C-13 12.66 -13 13.32 -13 14 C-13.680625 14.2475 -14.36125 14.495 -15.0625 14.75 C-17.42777689 15.7565008 -19.48552402 16.8259263 -21.6875 18.125 C-25 20 -25 20 -27 20 C-26 17 -26 17 -23.1875 15.4375 C-21.6096875 14.7259375 -21.6096875 14.7259375 -20 14 C-16.83795653 12.69495823 -16.83795653 12.69495823 -15 10 C-14.01 10 -13.02 10 -12 10 C-12 9.34 -12 8.68 -12 8 C-10.02 7.67 -8.04 7.34 -6 7 C-6 6.34 -6 5.68 -6 5 C-4.02 4.34 -2.04 3.68 0 3 C0 2.01 0 1.02 0 0 Z " fill="#534BF0" transform="translate(319,248)"/>
<path d="M0 0 C0 0.66 0 1.32 0 2 C-1.8984375 3.5078125 -1.8984375 3.5078125 -4.375 5.125 C-5.18710937 5.66382813 -5.99921875 6.20265625 -6.8359375 6.7578125 C-9 8 -9 8 -11 8 C-11.33 8.99 -11.66 9.98 -12 11 C-13.299375 11.12375 -13.299375 11.12375 -14.625 11.25 C-18.51101237 12.1135583 -20.71718502 13.7891246 -24 16 C-26.32003132 16.84833468 -28.59141707 17.4219401 -31 18 C-27.64416485 14.084859 -23.71933638 11.9204226 -19 10 C-18.34 10 -17.68 10 -17 10 C-17 9.34 -17 8.68 -17 8 C-14.54429825 6.66161267 -12.08570084 5.32913768 -9.625 4 C-8.92632812 3.6184375 -8.22765625 3.236875 -7.5078125 2.84375 C-2.2265625 0 -2.2265625 0 0 0 Z " fill="#514CF1" transform="translate(343,261)"/>
<path d="M0 0 C0.33 0.99 0.66 1.98 1 3 C1.5775 2.484375 2.155 1.96875 2.75 1.4375 C5 0 5 0 7.25 0.3125 C7.8275 0.539375 8.405 0.76625 9 1 C8.67 2.32 8.34 3.64 8 5 C2.25 6.125 2.25 6.125 0 5 C0.33 5.99 0.66 6.98 1 8 C-0.96330577 9.2325468 -2.92836817 10.46187231 -4.8984375 11.68359375 C-6.5536658 12.72041891 -8.18738263 13.79158842 -9.8125 14.875 C-10.534375 15.24625 -11.25625 15.6175 -12 16 C-12.99 15.67 -13.98 15.34 -15 15 C-11.25 12 -11.25 12 -9 12 C-9 11.34 -9 10.68 -9 10 C-7.68 10 -6.36 10 -5 10 C-5 9.34 -5 8.68 -5 8 C-4.01 7.34 -3.02 6.68 -2 6 C-0.78715124 2.94570927 -0.78715124 2.94570927 0 0 Z " fill="#5A3DF2" transform="translate(341,232)"/>
<path d="M0 0 C1.875 1.5 1.875 1.5 3 3 C0.72204978 5.27795022 -0.93787293 6.05219877 -4 7 C-6.3125 6.625 -6.3125 6.625 -8 6 C-8.66 7.65 -9.32 9.3 -10 11 C-10.66 11 -11.32 11 -12 11 C-12.33 9.68 -12.66 8.36 -13 7 C-12.01 6.67 -11.02 6.34 -10 6 C-10 5.01 -10 4.02 -10 3 C-9.34 3 -8.68 3 -8 3 C-8 2.34 -8 1.68 -8 1 C-5.20129973 -0.39935013 -3.09501208 -0.25265405 0 0 Z " fill="#16DDE7" transform="translate(162,242)"/>
<path d="M0 0 C0.66 0.33 1.32 0.66 2 1 C-0.15356332 4.90333351 -2.70157088 5.77430899 -6.81640625 7.1484375 C-9.14129615 8.05510297 -11.0413248 9.19471321 -13.125 10.5625 C-16.30451053 12.64866106 -19.30712085 13.98445823 -23 15 C-23 15.66 -23 16.32 -23 17 C-24.45381897 17.69699552 -25.91322953 18.38233866 -27.375 19.0625 C-28.18710937 19.44535156 -28.99921875 19.82820313 -29.8359375 20.22265625 C-30.55007813 20.47917969 -31.26421875 20.73570312 -32 21 C-32.66 20.67 -33.32 20.34 -34 20 C-27.34481277 15.98070992 -20.67718134 11.98263969 -14 8 C-13.24460937 7.54802246 -12.48921875 7.09604492 -11.7109375 6.63037109 C-9.77080298 5.47364763 -7.82453788 4.32828222 -5.875 3.1875 C-4.77929688 2.54167969 -3.68359375 1.89585937 -2.5546875 1.23046875 C-1.71164062 0.82441406 -0.86859375 0.41835938 0 0 Z " fill="#4568ED" transform="translate(299,285)"/>
<path d="M0 0 C5.26705998 -0.73636567 8.55616445 1.78734978 12.8125 4.5 C13.50537109 4.92925781 14.19824219 5.35851562 14.91210938 5.80078125 C16.61425793 6.85728725 18.3079911 7.9273302 20 9 C19.34 9.66 18.68 10.32 18 11 C18 10.34 18 9.68 18 9 C15.36 9 12.72 9 10 9 C9.34 7.68 8.68 6.36 8 5 C5.69 5.33 3.38 5.66 1 6 C0.67 4.02 0.34 2.04 0 0 Z " fill="#675EED" transform="translate(280,186)"/>
<path d="M0 0 C4.30764815 1.56641751 8.06171464 3.68336156 12 6 C10.88424427 9.34726719 10.48655378 9.62079748 7.5625 11.25 C6.386875 11.8275 5.21125 12.405 4 13 C3.34 12.67 2.68 12.34 2 12 C2.33 11.34 2.66 10.68 3 10 C2.34 9.67 1.68 9.34 1 9 C1.66 7.68 2.32 6.36 3 5 C2.2575 4.319375 2.2575 4.319375 1.5 3.625 C0 2 0 2 0 0 Z " fill="#8359EC" transform="translate(347,223)"/>
<path d="M0 0 C1.32 0 2.64 0 4 0 C4 0.66 4 1.32 4 2 C1.11878897 4.1679856 -2.07086028 5.88025815 -5.1875 7.6875 C-6.05181641 8.21150391 -6.91613281 8.73550781 -7.80664062 9.27539062 C-8.64775391 9.76587891 -9.48886719 10.25636719 -10.35546875 10.76171875 C-11.12528076 11.21506592 -11.89509277 11.66841309 -12.68823242 12.13549805 C-15.5666684 13.21190969 -17.09755736 12.90928956 -20 12 C-22.3125 10.4375 -22.3125 10.4375 -24 9 C-20.53058454 9.45822468 -17.32604951 9.89131683 -14 11 C-14 10.01 -14 9.02 -14 8 C-11.35261084 6.5393715 -10.10551666 6 -7 6 C-7.33 5.01 -7.66 4.02 -8 3 C-5.36 3 -2.72 3 0 3 C0 2.01 0 1.02 0 0 Z " fill="#7C7DE7" transform="translate(267,321)"/>
<path d="M0 0 C1.32 0.66 2.64 1.32 4 2 C3.67 2.66 3.34 3.32 3 4 C3.804375 4.4125 4.60875 4.825 5.4375 5.25 C8 7 8 7 8.8125 9.1875 C8.874375 9.785625 8.93625 10.38375 9 11 C7.375 11.6875 7.375 11.6875 5 12 C1.27808042 10.44920018 -1.86835277 8.52940738 -5 6 C-4.175 5.566875 -3.35 5.13375 -2.5 4.6875 C-1.2625 3.8521875 -1.2625 3.8521875 0 3 C0 2.01 0 1.02 0 0 Z " fill="#6A8BED" transform="translate(341,237)"/>
<path d="M0 0 C5.77914605 0.25181464 9.83017224 0.56115109 14 5 C14 5.66 14 6.32 14 7 C17.3 7.99 20.6 8.98 24 10 C23.01 11.485 23.01 11.485 22 13 C17.04288402 11.26153247 12.68611031 8.60348281 8.1875 5.9375 C7.39923828 5.47794922 6.61097656 5.01839844 5.79882812 4.54492188 C5.05439453 4.10599609 4.30996094 3.66707031 3.54296875 3.21484375 C2.86258545 2.81386475 2.18220215 2.41288574 1.48120117 1.99975586 C0.99240479 1.66983643 0.5036084 1.33991699 0 1 C0 0.67 0 0.34 0 0 Z " fill="#7396EA" transform="translate(185,296)"/>
<path d="M0 0 C1.98 0.66 3.96 1.32 6 2 C6 2.66 6 3.32 6 4 C6.66 4 7.32 4 8 4 C7.67 4.99 7.34 5.98 7 7 C4.36 7.33 1.72 7.66 -1 8 C-1 8.99 -1 9.98 -1 11 C-2.32 11 -3.64 11 -5 11 C-3.18669528 3.60729614 -3.18669528 3.60729614 0 1 C0 0.67 0 0.34 0 0 Z " fill="#6532F6" transform="translate(348,266)"/>
<path d="M0 0 C0.66 0.33 1.32 0.66 2 1 C1.67 1.99 1.34 2.98 1 4 C0.01 4.33 -0.98 4.66 -2 5 C-2.33 5.99 -2.66 6.98 -3 8 C-5.0625 8.6875 -5.0625 8.6875 -7 9 C-6.01 9.61875 -5.02 10.2375 -4 10.875 C-3.01 11.57625 -2.02 12.2775 -1 13 C-1 13.66 -1 14.32 -1 15 C-4.7910119 13.55049545 -8.3874638 11.84827434 -12 10 C-10.52296046 6.14794802 -8.51297709 4.74524676 -5 2.6875 C-4.113125 2.15511719 -3.22625 1.62273437 -2.3125 1.07421875 C-1.549375 0.71972656 -0.78625 0.36523438 0 0 Z " fill="#79AAE2" transform="translate(153,262)"/>
<path d="M0 0 C0 3 0 3 -2.3125 5.6875 C-5 8 -5 8 -8 8 C-8.99 8.33 -9.98 8.66 -11 9 C-13.1875 8.5625 -13.1875 8.5625 -15 8 C-15 8.66 -15 9.32 -15 10 C-16.32 9.67 -17.64 9.34 -19 9 C-8.62642369 2.11161731 -8.62642369 2.11161731 -3 3 C-3 2.34 -3 1.68 -3 1 C-2.01 0.67 -1.02 0.34 0 0 Z " fill="#467CE8" transform="translate(182,207)"/>
<path d="M0 0 C-0.33 1.32 -0.66 2.64 -1 4 C-1.515625 3.773125 -2.03125 3.54625 -2.5625 3.3125 C-7.62443946 2.6635334 -11.988867 5.94559321 -16.0625 8.625 C-19.34752606 10.75738534 -22.03393619 11.70254521 -26 12 C-23.6685835 9.38000426 -21.35020514 8.04425893 -18.1875 6.5625 C-15.11348567 5.09231923 -12.5889017 3.70175221 -9.8125 1.6875 C-6.33741354 -0.39755188 -3.98299621 -0.3186397 0 0 Z " fill="#4481F7" transform="translate(341,244)"/>
<path d="M0 0 C3 1 3 1 5 3 C5.99 3 6.98 3 8 3 C8.99 4.485 8.99 4.485 10 6 C11.31403276 6.70394612 12.6520257 7.36345658 14 8 C16.01182457 9.31542376 18.01399663 10.6459068 20 12 C19.67 12.66 19.34 13.32 19 14 C15.04 12.02 11.08 10.04 7 8 C7 7.34 7 6.68 7 6 C6.030625 5.7525 5.06125 5.505 4.0625 5.25 C3.051875 4.8375 2.04125 4.425 1 4 C0.125 1.875 0.125 1.875 0 0 Z " fill="#20CEF1" transform="translate(157,257)"/>
<path d="M0 0 C0.66 0 1.32 0 2 0 C2.33 1.65 2.66 3.3 3 5 C0.71125827 6.33858524 -1.58069656 7.67101014 -3.875 9 C-4.52597656 9.3815625 -5.17695313 9.763125 -5.84765625 10.15625 C-10.7734375 13 -10.7734375 13 -13 13 C-13 13.66 -13 14.32 -13 15 C-14.65 15.33 -16.3 15.66 -18 16 C-18.33 15.34 -18.66 14.68 -19 14 C-18.28199219 13.72929687 -17.56398438 13.45859375 -16.82421875 13.1796875 C-14.00768511 12.0032101 -11.44719814 10.66356805 -8.8125 9.125 C-7.95269531 8.63257813 -7.09289062 8.14015625 -6.20703125 7.6328125 C-3.87754071 5.9094018 -3.03414968 4.66914611 -2 2 C-1.34 2 -0.68 2 0 2 C0 1.34 0 0.68 0 0 Z " fill="#477FF7" transform="translate(339,256)"/>
<path d="M0 0 C4.44067619 0.5163577 7.24568155 1.6288515 11 4 C11.7425 4.185625 12.485 4.37125 13.25 4.5625 C13.8275 4.706875 14.405 4.85125 15 5 C15.33 5.66 15.66 6.32 16 7 C18.30532837 8.30635274 20.47571223 9.15857074 23 10 C21.28417969 11.13598633 21.28417969 11.13598633 19 12 C16.80175781 11.2331543 16.80175781 11.2331543 14.453125 9.82421875 C13.60878906 9.32599609 12.76445312 8.82777344 11.89453125 8.31445312 C10.58548828 7.50911133 10.58548828 7.50911133 9.25 6.6875 C8.36183594 6.16220703 7.47367188 5.63691406 6.55859375 5.09570312 C1.92981422 2.3262567 1.92981422 2.3262567 0 1 C0 0.67 0 0.34 0 0 Z " fill="#7385E9" transform="translate(207,309)"/>
<path d="M0 0 C4.74347226 1.37690456 8.72525162 3.43839441 12.875 6.0625 C13.46796875 6.42666016 14.0609375 6.79082031 14.671875 7.16601562 C16.13535713 8.0781629 17.5707255 9.03513368 19 10 C19 10.33 19 10.66 19 11 C12.64948454 11.36637589 12.64948454 11.36637589 9.5625 9.625 C8 8 8 8 8 6 C7.34 6 6.68 6 6 6 C6 5.34 6 4.68 6 4 C4.35 3.67 2.7 3.34 1 3 C0.67 2.01 0.34 1.02 0 0 Z " fill="#7E5BEB" transform="translate(326,211)"/>
<path d="M0 0 C0.66 0.33 1.32 0.66 2 1 C-0.10237158 3.25469373 -2.17049548 4.83453606 -4.8359375 6.375 C-5.57070313 6.80296875 -6.30546875 7.2309375 -7.0625 7.671875 C-7.825625 8.11015625 -8.58875 8.5484375 -9.375 9 C-10.88288195 9.87488031 -12.39069615 10.7498774 -13.8984375 11.625 C-14.60838867 12.03234375 -15.31833984 12.4396875 -16.04980469 12.859375 C-17.69655629 13.82252266 -19.30973815 14.84272696 -20.9140625 15.875 C-21.94660156 16.431875 -21.94660156 16.431875 -23 17 C-23.66 16.67 -24.32 16.34 -25 16 C-20.11485659 12.64553486 -15.30528476 9.65264238 -10 7 C-9.525625 6.525625 -9.05125 6.05125 -8.5625 5.5625 C-6.03661813 3.03661813 -3.18106971 1.61945367 0 0 Z " fill="#39A2F7" transform="translate(281,293)"/>
<path d="M0 0 C0.86625 0.4640625 0.86625 0.4640625 1.75 0.9375 C3.84294184 1.92583364 5.74535275 2.5168613 8 3 C8 3.66 8 4.32 8 5 C8.680625 5.2475 9.36125 5.495 10.0625 5.75 C13.56865083 7.24197908 16.71620368 9.06835511 20 11 C19.01 11.495 19.01 11.495 18 12 C15.9765625 11.2578125 15.9765625 11.2578125 13.625 10.125 C10.75916741 8.75438442 8.11073087 7.66759978 5 7 C5.33 6.34 5.66 5.68 6 5 C4.02 4.34 2.04 3.68 0 3 C0 2.01 0 1.02 0 0 Z " fill="#23C5F1" transform="translate(204,267)"/>
<path d="M0 0 C7.38012878 3.52148277 14.33359321 7.25271032 21 12 C18 13 18 13 15.765625 11.890625 C14.93546875 11.34921875 14.1053125 10.8078125 13.25 10.25 C10.19282659 8.30737444 7.33637802 6.62758859 3.9375 5.375 C2.968125 4.92125 1.99875 4.4675 1 4 C0.31640625 1.9140625 0.31640625 1.9140625 0 0 Z " fill="#387CEC" transform="translate(203,287)"/>
<path d="M0 0 C3.01217112 0.64449607 5.51655836 1.65022182 8.25 3.0625 C8.95640625 3.42472656 9.6628125 3.78695313 10.390625 4.16015625 C10.92171875 4.43730469 11.4528125 4.71445312 12 5 C12 5.66 12 6.32 12 7 C14.31 7.66 16.62 8.32 19 9 C19 9.99 19 10.98 19 12 C15.20950293 10.57250019 11.72877544 8.83763458 8.1875 6.875 C6.72376953 6.06675781 6.72376953 6.06675781 5.23046875 5.2421875 C4.49441406 4.83226562 3.75835937 4.42234375 3 4 C3 3.34 3 2.68 3 2 C2.01 1.67 1.02 1.34 0 1 C0 0.67 0 0.34 0 0 Z " fill="#3B78E9" transform="translate(209,268)"/>
<path d="M0 0 C5.625 -0.25 5.625 -0.25 9 2 C9.99 2.33 10.98 2.66 12 3 C12 3.99 12 4.98 12 6 C13.32 6.33 14.64 6.66 16 7 C15.67 7.66 15.34 8.32 15 9 C11.32305352 7.62859834 8.04681411 5.96304199 4.6875 3.9375 C3.80449219 3.41027344 2.92148438 2.88304687 2.01171875 2.33984375 C1.34785156 1.89769531 0.68398437 1.45554687 0 1 C0 0.67 0 0.34 0 0 Z " fill="#7B88EA" transform="translate(228,321)"/>
<path d="M0 0 C4.9723422 1.49170266 9.41845739 3.60457417 14 6 C14 6.66 14 7.32 14 8 C17.63 7.67 21.26 7.34 25 7 C22 10 22 10 18.125 10.375 C14.39103785 10.23721542 11.95453615 9.40056062 9 7 C9 6.34 9 5.68 9 5 C8.071875 4.731875 7.14375 4.46375 6.1875 4.1875 C3.23759634 3.08851629 1.94384814 2.37581439 0 0 Z " fill="#34ADF7" transform="translate(232,284)"/>
<path d="M0 0 C0.66 0.33 1.32 0.66 2 1 C2 1.66 2 2.32 2 3 C-0.25 4.5 -0.25 4.5 -3 6 C-3.680625 6.391875 -4.36125 6.78375 -5.0625 7.1875 C-7 8 -7 8 -11 8 C-11.33 8.99 -11.66 9.98 -12 11 C-12.99 10.34 -13.98 9.68 -15 9 C-12.54732365 7.46931512 -10.08866106 5.95031377 -7.625 4.4375 C-6.92632812 3.99986328 -6.22765625 3.56222656 -5.5078125 3.11132812 C-3.70814097 2.01249022 -1.85677657 0.99932133 0 0 Z " fill="#7998E8" transform="translate(209,189)"/>
<path d="M0 0 C2.4375 0.8125 2.4375 0.8125 5 2 C5.33 2.99 5.66 3.98 6 5 C4.54462432 5.83848804 3.08559627 6.67063934 1.625 7.5 C0.40683594 8.19609375 0.40683594 8.19609375 -0.8359375 8.90625 C-3 10 -3 10 -5 10 C-4.67 9.01 -4.34 8.02 -4 7 C-2.68 7 -1.36 7 0 7 C-0.185625 6.030625 -0.37125 5.06125 -0.5625 4.0625 C-0.706875 3.051875 -0.85125 2.04125 -1 1 C-0.67 0.67 -0.34 0.34 0 0 Z " fill="#799EE5" transform="translate(353,247)"/>
<path d="M0 0 C0 0.66 0 1.32 0 2 C-0.66 2 -1.32 2 -2 2 C-2 2.99 -2 3.98 -2 5 C-4.70879335 6.35439668 -7.00933268 6.06501451 -10 6 C-9.34 7.65 -8.68 9.3 -8 11 C-10.475 10.01 -10.475 10.01 -13 9 C-11.56356879 5.34646845 -9.94164969 4.06021834 -6.5 2.25 C-5.7059375 1.82203125 -4.911875 1.3940625 -4.09375 0.953125 C-2 0 -2 0 0 0 Z " fill="#69E3E7" transform="translate(154,243)"/>
<path d="M0 0 C2.29679188 1.09442433 4.58704964 2.19986661 6.875 3.3125 C7.52597656 3.62123047 8.17695313 3.92996094 8.84765625 4.24804688 C12.19676398 5.88807385 13.89005879 6.83508818 16 10 C14.02 10.99 14.02 10.99 12 12 C12.33 11.01 12.66 10.02 13 9 C12.34 8.773125 11.68 8.54625 11 8.3125 C7.11341372 6.6121185 3.36320183 4.60376916 0 2 C0 1.34 0 0.68 0 0 Z " fill="#8F70E3" transform="translate(343,261)"/>
<path d="M0 0 C1.98 0 3.96 0 6 0 C6.33 0.66 6.66 1.32 7 2 C8.65 2 10.3 2 12 2 C11.67 2.99 11.34 3.98 11 5 C11.99 5.33 12.98 5.66 14 6 C14 6.66 14 7.32 14 8 C8.76481294 6.56032356 4.36973991 4.18303389 0 1 C0 0.67 0 0.34 0 0 Z " fill="#729BE9" transform="translate(171,288)"/>
<path d="M0 0 C0.66 0.33 1.32 0.66 2 1 C1.01 3.31 0.02 5.62 -1 8 C-4 8 -7 8 -10 8 C-10 7.01 -10 6.02 -10 5 C-8.906875 4.731875 -7.81375 4.46375 -6.6875 4.1875 C-3.38307337 3.12336261 -2.05039578 2.65345336 0 0 Z " fill="#4872F3" transform="translate(208,192)"/>
<path d="M0 0 C-0.23046875 1.88671875 -0.23046875 1.88671875 -1 4 C-2.92578125 5.08203125 -2.92578125 5.08203125 -5.3125 5.8125 C-6.48232422 6.19341797 -6.48232422 6.19341797 -7.67578125 6.58203125 C-10.15528491 7.02792519 -11.63492369 6.79557487 -14 6 C-12.42356682 4.98915735 -10.8385483 3.99169489 -9.25 3 C-8.36828125 2.443125 -7.4865625 1.88625 -6.578125 1.3125 C-4 0 -4 0 0 0 Z " fill="#7687EA" transform="translate(239,174)"/>
<path d="M0 0 C5.31027254 1.46032495 9.46330032 3.98320986 14 7 C13.34 7.66 12.68 8.32 12 9 C12 8.34 12 7.68 12 7 C10.39125 6.814375 10.39125 6.814375 8.75 6.625 C3.36363636 5.72727273 3.36363636 5.72727273 1 4 C0.25 1.875 0.25 1.875 0 0 Z " fill="#7A66E5" transform="translate(312,203)"/>
<path d="M0 0 C0.433125 0.495 0.86625 0.99 1.3125 1.5 C2.99740483 3.33218192 2.99740483 3.33218192 6 3 C8.46278801 5.46278801 8.99771255 7.70676982 10 11 C9.01 10.67 8.02 10.34 7 10 C5.8125 7.4375 5.8125 7.4375 5 5 C3.02 5 1.04 5 -1 5 C-1 1 -1 1 0 0 Z " fill="#3D88EE" transform="translate(151,230)"/>
<path d="M0 0 C0.66 0.33 1.32 0.66 2 1 C1.34 2.65 0.68 4.3 0 6 C-3.3 6.33 -6.6 6.66 -10 7 C-6.81404865 4.36021174 -3.69029454 1.89501612 0 0 Z " fill="#70A0EC" transform="translate(161,217)"/>
<path d="M0 0 C0 0.66 0 1.32 0 2 C0.66 2 1.32 2 2 2 C4.125 3.875 4.125 3.875 6 6 C6 6.66 6 7.32 6 8 C1.69235185 6.43358249 -2.06171464 4.31663844 -6 2 C-2.25 0 -2.25 0 0 0 Z " fill="#729DEA" transform="translate(165,280)"/>
<path d="M0 0 C-2.05952358 1.29662538 -4.12237057 2.58735727 -6.1875 3.875 C-6.76564453 4.23980469 -7.34378906 4.60460937 -7.93945312 4.98046875 C-11.20278033 7.0085252 -14.38059362 8.70492051 -18 10 C-14.89973691 6.72257902 -12.02901106 4.06895163 -8 2 C-7.34 2 -6.68 2 -6 2 C-6 1.34 -6 0.68 -6 0 C-2.25 -1.125 -2.25 -1.125 0 0 Z " fill="#4587F9" transform="translate(321,273)"/>
<path d="M0 0 C0.66 0.33 1.32 0.66 2 1 C-0.22588219 5.03441147 -2.90702724 5.94069702 -7.05859375 7.33984375 C-9.14667021 8.04987377 -11.06171306 8.95009457 -13 10 C-9.75458573 5.06132612 -5.42018581 2.19737263 0 0 Z " fill="#4B58EE" transform="translate(299,285)"/>
<path d="M0 0 C1.98 0 3.96 0 6 0 C6.28875 0.61875 6.5775 1.2375 6.875 1.875 C7.93720042 4.13325765 7.93720042 4.13325765 10 6 C8.02 6.99 8.02 6.99 6 8 C5.38125 7.05125 4.7625 6.1025 4.125 5.125 C2.18029031 2.05554891 2.18029031 2.05554891 0 0 Z " fill="#6739F3" transform="translate(341,222)"/>
<path d="M0 0 C0.66 0.33 1.32 0.66 2 1 C1.5 2.875 1.5 2.875 0 5 C-5.12217216 6.79276025 -8.64757019 7.33810745 -14 6 C-14 5.34 -14 4.68 -14 4 C-13.24074219 3.96261719 -12.48148438 3.92523438 -11.69921875 3.88671875 C-10.70535156 3.82097656 -9.71148437 3.75523437 -8.6875 3.6875 C-7.70136719 3.62949219 -6.71523437 3.57148438 -5.69921875 3.51171875 C-2.75615543 2.95377187 -1.81817001 2.31459868 0 0 Z " fill="#3A81EE" transform="translate(260,286)"/>
<path d="M0 0 C0 0.66 0 1.32 0 2 C-1.96875 3.5078125 -1.96875 3.5078125 -4.5 5.125 C-5.3353125 5.66382813 -6.170625 6.20265625 -7.03125 6.7578125 C-7.6809375 7.16773438 -8.330625 7.57765625 -9 8 C-9.66 7.67 -10.32 7.34 -11 7 C-4.36842105 0 -4.36842105 0 0 0 Z M-13 8 C-12.34 8 -11.68 8 -11 8 C-11.33 8.99 -11.66 9.98 -12 11 C-12.99 10.67 -13.98 10.34 -15 10 C-14.34 9.34 -13.68 8.68 -13 8 Z " fill="#593FF2" transform="translate(343,261)"/>
<path d="M0 0 C0.66 0.33 1.32 0.66 2 1 C2.625 3.0625 2.625 3.0625 3 5 C-0.37817425 5.84454356 -2.67465243 6.10844919 -6 5 C-6 5.66 -6 6.32 -6 7 C-7.32 6.67 -8.64 6.34 -10 6 C-8.3811004 4.96951963 -6.75467511 3.95085322 -5.125 2.9375 C-4.22007812 2.36902344 -3.31515625 1.80054688 -2.3828125 1.21484375 C-1.20332031 0.61349609 -1.20332031 0.61349609 0 0 Z " fill="#719EEC" transform="translate(173,210)"/>
<path d="M0 0 C2.69122652 1.25173326 5.17607821 2.67139202 7.6875 4.25 C7.0275 4.91 6.3675 5.57 5.6875 6.25 C5.6875 5.59 5.6875 4.93 5.6875 4.25 C3.0475 4.25 0.4075 4.25 -2.3125 4.25 C-2.9725 2.93 -3.6325 1.61 -4.3125 0.25 C-2.3125 -0.75 -2.3125 -0.75 0 0 Z " fill="#7B70EC" transform="translate(292.3125,190.75)"/>
<path d="M0 0 C4 1.33333333 8 2.66666667 12 4 C12 4.66 12 5.32 12 6 C13.32 6.33 14.64 6.66 16 7 C16 7.66 16 8.32 16 9 C10.0942118 7.44584521 5.02261107 4.40465533 0 1 C0 0.67 0 0.34 0 0 Z " fill="#32AFF5" transform="translate(216,294)"/>
<path d="M0 0 C2.6875 -0.3125 2.6875 -0.3125 6 0 C8.75 2.4375 8.75 2.4375 11 5 C11.66 5.33 12.32 5.66 13 6 C13 6.66 13 7.32 13 8 C11.68 7.67 10.36 7.34 9 7 C9 6.34 9 5.68 9 5 C8.443125 4.896875 7.88625 4.79375 7.3125 4.6875 C4.54289253 3.86410318 2.39747583 2.59831722 0 1 C0 0.67 0 0.34 0 0 Z " fill="#3192E9" transform="translate(161,241)"/>
<path d="M0 0 C2.3125 -0.3125 2.3125 -0.3125 5 0 C6.6875 2.375 6.6875 2.375 8 5 C8.66 5.66 9.32 6.32 10 7 C7.69 7.33 5.38 7.66 3 8 C3.66 7.01 4.32 6.02 5 5 C3.7625 4.319375 3.7625 4.319375 2.5 3.625 C1.675 3.08875 0.85 2.5525 0 2 C0 1.34 0 0.68 0 0 Z " fill="#72B5EA" transform="translate(151,235)"/>
<path d="M0 0 C3.40312738 1.05875074 6.01353231 2.00902154 9 4 C8.67 4.99 8.34 5.98 8 7 C6.68 7 5.36 7 4 7 C3.67 6.01 3.34 5.02 3 4 C2.01 3.67 1.02 3.34 0 3 C0 2.01 0 1.02 0 0 Z " fill="#7B69EA" transform="translate(300,196)"/>
<path d="M0 0 C1.32 0.33 2.64 0.66 4 1 C3.67 2.32 3.34 3.64 3 5 C1.02 5.33 -0.96 5.66 -3 6 C-3.33 5.34 -3.66 4.68 -4 4 C-3.34 4 -2.68 4 -2 4 C-1.34 2.68 -0.68 1.36 0 0 Z " fill="#6D42EF" transform="translate(346,232)"/>
<path d="M0 0 C0.66 0.33 1.32 0.66 2 1 C1.67 1.99 1.34 2.98 1 4 C0.01 4.33 -0.98 4.66 -2 5 C-2.33 5.99 -2.66 6.98 -3 8 C-5.475 7.01 -5.475 7.01 -8 6 C-5.38485683 3.87961365 -2.80362384 1.86908256 0 0 Z " fill="#71A7E8" transform="translate(153,262)"/>
<path d="M0 0 C0.66 0.33 1.32 0.66 2 1 C2 2.98 2 4.96 2 7 C-0.76276177 6.47731534 -3.3260876 5.89130413 -6 5 C-6 4.34 -6 3.68 -6 3 C-4.35 3 -2.7 3 -1 3 C-0.67 2.01 -0.34 1.02 0 0 Z " fill="#4081EE" transform="translate(351,247)"/>
<path d="M0 0 C0.78375 0.185625 1.5675 0.37125 2.375 0.5625 C4.97089775 1.25962266 4.97089775 1.25962266 7 0 C7.268125 0.639375 7.53625 1.27875 7.8125 1.9375 C8.88667752 4.33131686 8.88667752 4.33131686 12 5 C11.67 5.66 11.34 6.32 11 7 C3.57142857 3.85714286 3.57142857 3.85714286 0 2 C0 1.34 0 0.68 0 0 Z " fill="#1FD4EF" transform="translate(180,272)"/>
<path d="M0 0 C3.96 0 7.92 0 12 0 C10.68 1.32 9.36 2.64 8 4 C5.01736939 3.81358559 2.61292041 2.39977879 0 1 C0 0.67 0 0.34 0 0 Z " fill="#35A9F8" transform="translate(244,310)"/>
<path d="M0 0 C0.66 0 1.32 0 2 0 C2 0.66 2 1.32 2 2 C1.34 2 0.68 2 0 2 C0 3.98 0 5.96 0 8 C-2.475 7.01 -2.475 7.01 -5 6 C-5 5.01 -5 4.02 -5 3 C-3.02 3.495 -3.02 3.495 -1 4 C-0.67 2.68 -0.34 1.36 0 0 Z " fill="#3C89F2" transform="translate(151,266)"/>
<path d="M0 0 C1.051875 0.185625 2.10375 0.37125 3.1875 0.5625 C6.57119882 0.95079331 8.76425888 0.88247485 12 0 C11.67 1.32 11.34 2.64 11 4 C9.35232753 3.71890887 7.70686855 3.42481474 6.0625 3.125 C4.68771484 2.88136719 4.68771484 2.88136719 3.28515625 2.6328125 C2.53105469 2.42398437 1.77695313 2.21515625 1 2 C0.67 1.34 0.34 0.68 0 0 Z " fill="#545DE8" transform="translate(242,328)"/>
<path d="M0 0 C0.66 0.66 1.32 1.32 2 2 C-2.625 6 -2.625 6 -6 6 C-5.8125 4.125 -5.8125 4.125 -5 2 C-2.4375 0.75 -2.4375 0.75 0 0 Z " fill="#3599F6" transform="translate(302,280)"/>
<path d="M0 0 C4.30764815 1.56641751 8.06171464 3.68336156 12 6 C10 7 10 7 7.87109375 6.328125 C7.06800781 5.97234375 6.26492187 5.6165625 5.4375 5.25 C4.22900391 4.73179687 4.22900391 4.73179687 2.99609375 4.203125 C1 3 1 3 0 0 Z " fill="#2CBFF6" transform="translate(212,272)"/>
<path d="M0 0 C3 1 3 1 5 3 C5.99 3 6.98 3 8 3 C8.33 3.99 8.66 4.98 9 6 C2.25 5.25 2.25 5.25 0 3 C0 2.01 0 1.02 0 0 Z " fill="#1DD7EA" transform="translate(157,257)"/>
<path d="M0 0 C2.1875 -0.3125 2.1875 -0.3125 5 0 C7.8125 2.5 7.8125 2.5 10 5 C9.67 5.66 9.34 6.32 9 7 C5.54809037 5.27404519 2.71685562 2.71685562 0 0 Z " fill="#68E4EB" transform="translate(148,255)"/>
<path d="M0 0 C0 0.99 0 1.98 0 3 C-2.78823655 4.0326802 -3.8677274 4.04509293 -6.75 3.0625 C-7.4925 2.711875 -8.235 2.36125 -9 2 C-5.5647952 -0.29013653 -4.014669 -0.17842973 0 0 Z " fill="#4B6EEB" transform="translate(215,306)"/>
<path d="M0 0 C4.08378283 0.74250597 8.01939223 1.82923301 12 3 C11.01 4.485 11.01 4.485 10 6 C6.40992874 4.66654496 3.20429093 3.1056769 0 1 C0 0.67 0 0.34 0 0 Z " fill="#7D95EA" transform="translate(197,303)"/>
<path d="M0 0 C3.94120709 0.56302958 6.7508723 1.6791945 10 4 C10 4.66 10 5.32 10 6 C5.56909529 4.79157144 3.01887244 3.48331435 0 0 Z " fill="#3C77E9" transform="translate(230,281)"/>
<path d="M0 0 C2.31 0 4.62 0 7 0 C7.33 0.99 7.66 1.98 8 3 C6.25 3.75 6.25 3.75 4 4 C1.75 2.0625 1.75 2.0625 0 0 Z " fill="#4083EF" transform="translate(342,245)"/>
<path d="M0 0 C5.875 1.875 5.875 1.875 7 3 C7.04063832 4.66617115 7.042721 6.33388095 7 8 C6.01 8.495 6.01 8.495 5 9 C4.9175 8.2575 4.835 7.515 4.75 6.75 C3.8603054 3.48778646 2.51496251 2.19045122 0 0 Z " fill="#17DBEC" transform="translate(187,259)"/>
<path d="M0 0 C6.75 0.875 6.75 0.875 9 2 C9 2.66 9 3.32 9 4 C7.02 4.99 7.02 4.99 5 6 C5 4.68 5 3.36 5 2 C3.02 2 1.04 2 -1 2 C-0.67 1.34 -0.34 0.68 0 0 Z " fill="#5B49F1" transform="translate(291,194)"/>
<path d="M0 0 C0.33 0.99 0.66 1.98 1 3 C0.34 3 -0.32 3 -1 3 C-1.33 3.99 -1.66 4.98 -2 6 C-4.475 5.01 -4.475 5.01 -7 4 C-7 3.67 -7 3.34 -7 3 C-5.35 3 -3.7 3 -2 3 C-2 2.34 -2 1.68 -2 1 C-1.34 0.67 -0.68 0.34 0 0 Z " fill="#5D99E9" transform="translate(161,275)"/>
<path d="M0 0 C3.77545388 1.09068668 6.47043472 1.9083091 9 5 C8.01 5.33 7.02 5.66 6 6 C6 5.34 6 4.68 6 4 C4.35 3.67 2.7 3.34 1 3 C0.67 2.01 0.34 1.02 0 0 Z " fill="#8D74E9" transform="translate(326,211)"/>
<path d="M0 0 C6.625 0.75 6.625 0.75 10 3 C7.8125 3.75 7.8125 3.75 5 4 C2.1875 2.0625 2.1875 2.0625 0 0 Z " fill="#868AE5" transform="translate(243,330)"/>
<path d="M0 0 C1.9375 0.375 1.9375 0.375 4 1 C4.33 1.66 4.66 2.32 5 3 C2.35261084 4.4606285 1.10551666 5 -2 5 C-2 4.34 -2 3.68 -2 3 C-1.34 3 -0.68 3 0 3 C0 2.01 0 1.02 0 0 Z " fill="#7565E9" transform="translate(297,302)"/>
<path d="M0 0 C1.65 0 3.3 0 5 0 C5.66 1.32 6.32 2.64 7 4 C4.03 3.505 4.03 3.505 1 3 C0.67 2.01 0.34 1.02 0 0 Z " fill="#6083E5" transform="translate(192,299)"/>
<path d="M0 0 C1.32 0.66 2.64 1.32 4 2 C4 3.32 4 4.64 4 6 C1.525 5.01 1.525 5.01 -1 4 C-0.67 2.68 -0.34 1.36 0 0 Z " fill="#3D80EA" transform="translate(168,280)"/>
<path d="M0 0 C0.99 0.33 1.98 0.66 3 1 C-1.625 5 -1.625 5 -5 5 C-4.67 4.01 -4.34 3.02 -4 2 C-2.68 2 -1.36 2 0 2 C0 1.34 0 0.68 0 0 Z " fill="#4580E8" transform="translate(167,215)"/>
<path d="M0 0 C3.96 1.98 3.96 1.98 8 4 C7.34 4.66 6.68 5.32 6 6 C6 5.34 6 4.68 6 4 C3.69 3.67 1.38 3.34 -1 3 C-0.67 2.01 -0.34 1.02 0 0 Z " fill="#8B75EC" transform="translate(318,206)"/>
<path d="M0 0 C3.77545388 1.09068668 6.47043472 1.9083091 9 5 C8.01 5.33 7.02 5.66 6 6 C5.67 5.01 5.34 4.02 5 3 C3.35 2.67 1.7 2.34 0 2 C0 1.34 0 0.68 0 0 Z " fill="#8F8FE8" transform="translate(262,174)"/>
<path d="M0 0 C5.53846154 0.61538462 5.53846154 0.61538462 7.875 2.5625 C8.431875 3.2740625 8.431875 3.2740625 9 4 C3.46153846 3.38461538 3.46153846 3.38461538 1.125 1.4375 C0.75375 0.963125 0.3825 0.48875 0 0 Z " fill="#7A94E3" transform="translate(207,309)"/>
<path d="M0 0 C0.99 0.33 1.98 0.66 3 1 C2.01 1.495 2.01 1.495 1 2 C0.67 2.99 0.34 3.98 0 5 C-0.99 4.67 -1.98 4.34 -3 4 C-2.67 3.01 -2.34 2.02 -2 1 C-1.34 0.67 -0.68 0.34 0 0 Z " fill="#83AFE4" transform="translate(144,227)"/>
</svg>
